<svg width="396" height="592" viewBox="0 0 396 592" fill="none" xmlns="http://www.w3.org/2000/svg">
<g clip-path="url(#clip0_2_435)">
<path d="M370.45 199.513L367.525 198.721L388.202 122.295C389.773 116.486 390.13 110.41 389.251 104.413C388.372 98.4155 386.275 92.615 383.079 87.3424C379.884 82.0698 375.653 77.4284 370.627 73.6831C365.601 69.9379 359.88 67.1621 353.789 65.5144L184.016 19.584C177.925 17.9363 171.585 17.4488 165.356 18.1494C159.128 18.85 153.134 20.725 147.716 23.6673C142.298 26.6096 137.562 30.5617 133.78 35.2977C129.997 40.0338 127.241 45.4612 125.67 51.2701L12.2381 470.55C10.6666 476.359 10.3101 482.435 11.189 488.432C12.0679 494.43 14.1649 500.23 17.3604 505.503C20.5559 510.775 24.7872 515.417 29.8128 519.162C34.8384 522.907 40.5598 525.683 46.6504 527.331L216.424 573.261C222.514 574.909 228.855 575.396 235.083 574.696C241.312 573.995 247.306 572.12 252.724 569.178C258.142 566.236 262.877 562.284 266.66 557.547C270.443 552.811 273.198 547.384 274.77 541.575L352.808 253.123L355.733 253.914L370.45 199.513Z" fill="#F0475E"/>
<path d="M351.92 80.5474L329.713 74.5395C330.094 77.179 329.791 79.8485 328.828 82.3128C327.865 84.7772 326.273 86.9606 324.191 88.671C322.11 90.3813 319.603 91.5659 316.892 92.1205C314.181 92.6751 311.349 92.5827 308.645 91.8513L211.182 65.4838C208.478 64.7521 205.986 63.4039 203.924 61.5581C201.862 59.7123 200.295 57.4254 199.359 54.899C198.424 52.3726 198.15 49.6842 198.561 47.0706C198.972 44.457 200.056 41.9984 201.716 39.9114L180.975 34.3001C176.417 33.067 171.675 32.6933 167.018 33.2005C162.362 33.7076 157.883 35.0855 153.837 37.2556C149.791 39.4257 146.258 42.3454 143.438 45.8481C140.619 49.3508 138.569 53.3679 137.405 57.6699L25.0771 472.869C23.9132 477.171 23.6585 481.674 24.3274 486.121C24.9963 490.567 26.5758 494.87 28.9757 498.784C31.3756 502.698 34.5488 506.146 38.3143 508.932C42.0798 511.717 46.3637 513.785 50.9216 515.018L221.866 561.266C226.424 562.499 231.167 562.872 235.823 562.365C240.479 561.858 244.958 560.48 249.004 558.31C253.05 556.14 256.583 553.22 259.403 549.718C262.222 546.215 264.272 542.198 265.436 537.896L377.764 122.697C380.115 114.008 378.712 104.686 373.865 96.7819C369.019 88.8774 361.124 83.0376 351.92 80.5474Z" fill="#FEFFFF"/>
<path d="M318.821 172.08L157.616 128.468C149.619 126.305 141.383 131.033 139.219 139.03L102.397 275.137C100.234 283.134 104.963 291.371 112.959 293.534L274.164 337.146C282.161 339.31 290.397 334.581 292.561 326.584L329.383 190.477C331.547 182.48 326.818 174.244 318.821 172.08Z" fill="#E6E6E6"/>
<path d="M233.139 273.486L178.861 258.802C177.403 258.407 170.499 252.053 171.894 246.895L179.918 217.237C185.727 194.734 260.786 213.465 254.601 237.442L246.577 267.1C245.182 272.258 238.382 274.905 233.139 273.486Z" fill="#A0616A"/>
<path d="M252.63 214.734C250.213 213.081 247.486 211.917 244.612 211.315C245.435 211.275 246.238 211.066 246.968 210.7C246.456 210.54 245.96 210.333 245.487 210.083C244.959 209.831 244.497 209.461 244.14 209.003C243.783 208.535 243.69 207.925 243.892 207.382C244.179 206.727 244.984 206.343 245.103 205.638C245.239 204.831 244.412 204.197 244.083 203.439C243.72 202.306 244.166 201.084 245.175 200.444C245.793 200.035 246.491 199.753 247.226 199.614C246.202 199.042 245.044 198.746 243.872 198.757C245.278 198.191 246.196 196.857 246.207 195.362C246.06 193.458 244.954 191.738 243.258 190.777C241.58 189.849 239.758 189.199 237.869 188.854C239.567 188.808 239.979 186.344 239.075 184.925C238.17 183.506 236.577 182.584 235.759 181.117C234.942 179.649 235.704 177.194 237.387 177.442L237.34 176.822C234.412 174.76 230.36 175.391 228.29 178.232C228.113 178.475 227.954 178.73 227.814 178.996C227.024 180.731 227.037 182.891 225.67 184.236C223.928 185.951 220.975 185.399 218.644 184.526C216.454 183.303 213.872 182.96 211.451 183.572C209.331 184.514 208.414 186.97 209.403 189.057C209.952 190.215 211.01 191.07 212.274 191.375C210.697 190.96 209.075 190.738 207.447 190.714L208.764 191.666C209.064 191.853 209.32 192.099 209.517 192.389C209.711 192.69 209.692 193.076 209.468 193.352C209.121 193.703 208.519 193.525 208.057 193.325L204.994 191.993C205.573 192.372 205.735 193.133 205.355 193.695C204.976 194.257 204.2 194.406 203.621 194.027C203.473 193.93 203.347 193.804 203.252 193.656C203.478 194.118 203.627 194.612 203.693 195.118C203.755 195.633 203.558 196.143 203.165 196.484C202.359 196.889 201.374 196.744 200.713 196.124C200.48 195.956 200.249 195.772 200.014 195.597C199.995 195.689 199.978 195.781 199.964 195.874C199.817 197.117 200.211 198.37 201.049 199.328C199.559 199.101 198.042 199.424 196.796 200.236C194.591 201.798 193.723 204.61 194.665 207.138C193.243 206.009 191.557 205.247 189.764 204.923C187.903 204.652 186.148 205.785 185.68 207.559C185.383 209.807 187.922 211.345 190.075 212.216C207.005 219.051 224.702 223.836 242.769 226.465C245.189 226.952 247.673 227.004 250.101 226.619C252.564 226.2 254.622 224.574 255.553 222.308C256.224 219.456 255.07 216.468 252.63 214.734Z" fill="#F0475E"/>
<path d="M256.765 244.025C256.833 242.229 255.65 240.627 253.916 240.167C252.255 239.764 250.461 240.545 248.911 239.848C247.624 239.27 246.885 237.808 245.484 237.621C244.201 237.451 243.206 238.484 242.105 238.886L239.732 238.244C239.005 237.265 238.95 235.666 237.781 234.906C236.019 233.76 233.881 235.523 231.755 235.362C230.549 235.176 229.428 234.63 228.538 233.796C227.67 232.966 226.666 232.293 225.57 231.803C224.584 231.371 223.438 231.544 222.622 232.249C222.852 231.649 222.215 230.827 221.412 230.568C220.495 230.356 219.538 230.389 218.637 230.666C217.733 230.941 216.77 230.955 215.859 230.707C213.888 229.984 213.537 227.352 211.513 226.777C208.966 226.054 206.957 229.424 204.513 228.43C203.243 227.912 202.857 226.525 201.823 225.697C200.683 224.977 199.359 224.605 198.011 224.625L191.73 224.129C189.846 224.14 187.993 223.658 186.354 222.731C185.197 221.92 184.224 220.576 182.798 220.601C181.556 220.624 180.644 221.764 179.407 221.501C178.655 221.192 177.973 220.731 177.406 220.148C176.237 219.34 174.698 219.314 173.501 220.083C172.093 222.633 171.217 225.443 170.925 228.342C170.747 228.929 170.633 229.533 170.587 230.144L170.078 255.876C169.785 259.764 170.887 262.931 174.644 263.947L233.083 279.757C236.84 280.774 240.791 278.974 242.498 275.468L255.032 252.99C255.061 252.931 255.085 252.871 255.113 252.811C256.035 249.965 256.591 247.012 256.765 244.025Z" fill="#CCCCCC"/>
<path opacity="0.2" d="M187.256 222.058L184.108 237.548C183.059 242.711 181.226 247.586 180.176 252.75C179.585 255.658 179.778 258.853 179.187 261.761C179.118 262.104 179.555 262.225 179.625 261.88L182.773 246.39L185.921 230.901L187.694 222.177C187.763 221.834 187.327 221.713 187.256 222.058Z" fill="black"/>
<path opacity="0.2" d="M195.646 225.895L192.465 240.777L189.284 255.66L187.498 264.015C187.427 264.351 188.337 264.599 188.409 264.261L191.59 249.379L194.771 234.496L196.556 226.141C196.628 225.805 195.718 225.558 195.646 225.895Z" fill="black"/>
<path opacity="0.2" d="M213.949 230.853L210.308 245.634L206.69 260.326L204.641 268.646C204.607 268.793 204.717 268.946 204.887 268.986C205.049 269.025 205.208 268.948 205.251 268.811L208.891 254.03L212.51 239.338L214.559 231.018C214.593 230.871 214.482 230.718 214.312 230.678C214.151 230.639 213.992 230.716 213.949 230.853Z" fill="black"/>
<path opacity="0.2" d="M224.205 233.618L220.762 248.441L217.318 263.264L215.391 271.561C215.361 271.705 215.526 271.869 215.761 271.928C215.984 271.983 216.191 271.923 216.235 271.79L219.678 256.967L223.122 242.144L225.049 233.847C225.077 233.702 224.91 233.539 224.676 233.481C224.455 233.428 224.25 233.487 224.205 233.618Z" fill="black"/>
<path opacity="0.2" d="M233.719 236.201L230.563 251.714L227.416 267.183L225.643 275.9C225.573 276.244 226.017 276.367 226.088 276.021L229.244 260.508L232.39 245.039L234.164 236.322C234.234 235.978 233.79 235.855 233.719 236.201Z" fill="black"/>
<path opacity="0.2" d="M242.196 240.069L239.586 254.485C238.716 259.29 235.409 263.435 234.539 268.241L233.073 276.335C233.009 276.686 233.923 276.935 233.987 276.582C234.857 271.777 238.164 267.631 239.034 262.826L241.644 248.411L243.11 240.317C243.173 239.966 242.26 239.717 242.196 240.069Z" fill="black"/>
<path d="M234.479 199.99C235.895 200.373 237.219 200.028 237.438 199.219C237.657 198.41 236.687 197.444 235.272 197.061C233.856 196.678 232.532 197.024 232.313 197.832C232.094 198.641 233.064 199.607 234.479 199.99Z" fill="#3F3D56"/>
<path d="M215.096 203.388C215.905 203.607 216.738 203.129 216.956 202.32C217.175 201.511 216.697 200.678 215.888 200.46C215.079 200.241 214.246 200.719 214.028 201.528C213.809 202.336 214.287 203.169 215.096 203.388Z" fill="#FF6584"/>
<path d="M231.173 209.31C232.184 209.583 233.092 209.477 233.201 209.073C233.311 208.668 232.58 208.119 231.569 207.845C230.558 207.572 229.65 207.678 229.54 208.082C229.431 208.487 230.162 209.036 231.173 209.31Z" fill="#E6E6E6"/>
<path d="M239.197 213.052C239.602 213.162 240.018 212.923 240.128 212.518C240.237 212.114 239.998 211.697 239.594 211.588C239.189 211.479 238.773 211.718 238.663 212.122C238.554 212.526 238.793 212.943 239.197 213.052Z" fill="#3F3D56"/>
<path d="M226.293 214.275C227.102 214.494 227.846 214.344 227.955 213.939C228.065 213.535 227.498 213.03 226.689 212.811C225.88 212.592 225.136 212.743 225.027 213.147C224.917 213.551 225.484 214.056 226.293 214.275Z" fill="#FF6584"/>
<path d="M242.066 216.971C242.875 217.19 243.619 217.039 243.729 216.635C243.838 216.23 243.271 215.725 242.462 215.507C241.654 215.288 240.909 215.438 240.8 215.843C240.691 216.247 241.258 216.752 242.066 216.971Z" fill="#E6E6E6"/>
<path d="M248.596 221.881C249.405 222.099 250.238 221.621 250.456 220.813C250.675 220.004 250.197 219.171 249.388 218.952C248.579 218.733 247.746 219.212 247.528 220.02C247.309 220.829 247.787 221.662 248.596 221.881Z" fill="#3F3D56"/>
<path d="M237.553 222.036C238.361 222.255 239.106 222.105 239.215 221.7C239.324 221.296 238.758 220.791 237.949 220.572C237.14 220.353 236.396 220.504 236.286 220.908C236.177 221.312 236.744 221.817 237.553 222.036Z" fill="#FF6584"/>
<path d="M210.149 203.594C210.434 202.92 210.286 202.212 209.817 202.014C209.349 201.815 208.737 202.2 208.451 202.874C208.165 203.548 208.314 204.255 208.782 204.454C209.251 204.653 209.863 204.267 210.149 203.594Z" fill="#E6E6E6"/>
<path d="M204.957 210.529C205.243 209.855 205.095 209.148 204.626 208.949C204.157 208.75 203.545 209.135 203.26 209.809C202.974 210.483 203.122 211.19 203.591 211.389C204.06 211.588 204.671 211.203 204.957 210.529Z" fill="#3F3D56"/>
<path d="M205.404 197.952C205.69 197.278 205.542 196.571 205.073 196.372C204.604 196.173 203.993 196.558 203.707 197.232C203.421 197.906 203.569 198.613 204.038 198.812C204.507 199.011 205.119 198.626 205.404 197.952Z" fill="#FF6584"/>
<path d="M225.197 203.132C225.483 202.458 225.335 201.751 224.866 201.552C224.397 201.353 223.786 201.738 223.5 202.412C223.214 203.086 223.362 203.793 223.831 203.992C224.3 204.191 224.912 203.806 225.197 203.132Z" fill="#E6E6E6"/>
<path d="M220.002 210.066C220.288 209.393 220.14 208.685 219.671 208.486C219.202 208.288 218.59 208.673 218.305 209.346C218.019 210.02 218.167 210.728 218.636 210.926C219.105 211.125 219.716 210.74 220.002 210.066Z" fill="#3F3D56"/>
<path d="M220.453 197.49C220.739 196.816 220.591 196.109 220.122 195.91C219.653 195.711 219.042 196.096 218.756 196.77C218.47 197.444 218.618 198.151 219.087 198.35C219.556 198.549 220.167 198.164 220.453 197.49Z" fill="#FF6584"/>
<path d="M223.191 193.792C224.405 194.121 225.565 193.731 225.784 192.922C226.003 192.114 225.197 191.192 223.984 190.864C222.771 190.536 221.61 190.925 221.391 191.734C221.172 192.543 221.978 193.464 223.191 193.792Z" fill="#E6E6E6"/>
<path d="M231.297 195.551C231.583 194.877 231.434 194.17 230.966 193.971C230.497 193.772 229.885 194.157 229.599 194.831C229.314 195.505 229.462 196.212 229.931 196.411C230.4 196.61 231.011 196.225 231.297 195.551Z" fill="#3F3D56"/>
<path d="M231.754 182.98C232.04 182.306 231.892 181.599 231.423 181.4C230.954 181.201 230.342 181.586 230.057 182.26C229.771 182.934 229.919 183.641 230.388 183.84C230.857 184.039 231.468 183.654 231.754 182.98Z" fill="#FF6584"/>
<path d="M114.538 274.39C113.635 274.146 112.805 273.766 112.05 273.251C111.309 272.727 110.775 272.173 110.449 271.587L111.22 270.733C111.536 271.266 112.014 271.774 112.654 272.258C113.308 272.734 114.035 273.079 114.834 273.296C115.599 273.502 116.244 273.577 116.769 273.521C117.309 273.455 117.732 273.29 118.04 273.025C118.36 272.764 118.573 272.436 118.679 272.042C118.808 271.567 118.772 271.147 118.572 270.783C118.384 270.421 118.092 270.099 117.696 269.818C117.303 269.525 116.857 269.243 116.359 268.972C115.86 268.7 115.363 268.423 114.868 268.14C114.376 267.845 113.937 267.515 113.551 267.149C113.177 266.787 112.904 266.371 112.732 265.902C112.576 265.425 112.585 264.862 112.76 264.213C112.923 263.61 113.229 263.103 113.676 262.689C114.138 262.267 114.74 261.995 115.482 261.872C116.227 261.738 117.115 261.811 118.146 262.09C118.829 262.274 119.48 262.556 120.099 262.935C120.721 263.302 121.229 263.719 121.625 264.187L120.913 265.095C120.486 264.606 119.999 264.201 119.452 263.879C118.917 263.56 118.377 263.327 117.832 263.179C117.103 262.982 116.474 262.918 115.945 262.986C115.417 263.054 114.992 263.225 114.669 263.499C114.361 263.763 114.151 264.104 114.038 264.521C113.91 264.996 113.94 265.414 114.128 265.776C114.327 266.141 114.625 266.464 115.022 266.745C115.43 267.03 115.883 267.308 116.381 267.579C116.879 267.851 117.369 268.132 117.849 268.424C118.341 268.719 118.775 269.047 119.149 269.41C119.538 269.763 119.813 270.173 119.973 270.639C120.144 271.108 120.144 271.661 119.971 272.298C119.811 272.889 119.5 273.396 119.038 273.818C118.579 274.228 117.971 274.499 117.215 274.63C116.473 274.752 115.581 274.672 114.538 274.39ZM124.503 277.068C123.646 276.836 123.048 276.425 122.71 275.837C122.372 275.248 122.318 274.531 122.547 273.685L124.864 265.119L126.098 265.453L123.799 273.949C123.655 274.482 123.677 274.93 123.865 275.291C124.065 275.656 124.419 275.907 124.929 276.045C125.473 276.193 125.967 276.158 126.411 275.943L126.606 276.946C126.303 277.101 125.964 277.183 125.588 277.193C125.224 277.207 124.862 277.165 124.503 277.068ZM122.408 267.718L122.685 266.693L128.332 268.221L128.055 269.246L122.408 267.718ZM128.701 278.11L131.169 268.988L132.351 269.308L131.678 271.792L131.674 271.325C132.117 270.699 132.688 270.288 133.388 270.092C134.09 269.884 134.888 269.901 135.78 270.142L135.455 271.341C135.409 271.328 135.363 271.316 135.316 271.303C135.273 271.279 135.228 271.261 135.182 271.248C134.221 270.988 133.388 271.08 132.683 271.523C131.982 271.955 131.486 272.71 131.195 273.787L129.935 278.444L128.701 278.11ZM140.577 281.323L141.122 279.307L141.16 278.963L142.071 275.592C142.281 274.816 142.223 274.16 141.895 273.624C141.58 273.091 140.993 272.709 140.136 272.477C139.545 272.317 138.957 272.263 138.371 272.316C137.784 272.369 137.262 272.507 136.804 272.731L136.497 271.66C137.067 271.392 137.704 271.241 138.409 271.208C139.118 271.163 139.831 271.238 140.549 271.432C141.731 271.752 142.56 272.293 143.037 273.057C143.529 273.811 143.614 274.785 143.291 275.978L141.759 281.643L140.577 281.323ZM137.409 280.559C136.725 280.374 136.158 280.103 135.708 279.745C135.273 279.378 134.975 278.962 134.815 278.496C134.659 278.019 134.651 277.519 134.792 276.998C134.92 276.523 135.146 276.124 135.47 275.802C135.808 275.47 136.263 275.258 136.836 275.164C137.423 275.062 138.151 275.128 139.019 275.363L142.164 276.214L141.915 277.135L138.805 276.294C137.925 276.055 137.268 276.046 136.836 276.264C136.416 276.486 136.143 276.829 136.017 277.292C135.876 277.814 135.966 278.285 136.287 278.708C136.608 279.13 137.133 279.44 137.863 279.638C138.558 279.826 139.197 279.831 139.78 279.653C140.377 279.466 140.873 279.103 141.268 278.564L141.315 279.49C140.921 280.03 140.385 280.401 139.709 280.603C139.044 280.809 138.277 280.794 137.409 280.559ZM146.799 283.006L145.826 272.953L147.008 273.273L147.846 282.581L147.308 282.435L152.811 274.843L153.871 275.13L154.762 284.452L154.223 284.306L159.692 276.705L160.821 277.01L154.896 285.197L153.732 284.882L152.826 276.096L153.191 276.195L147.963 283.321L146.799 283.006ZM164.896 287.995C164.097 287.779 163.427 287.405 162.887 286.874C162.351 286.331 161.991 285.662 161.808 284.866C161.626 284.071 161.667 283.181 161.934 282.197C162.203 281.2 162.616 280.411 163.171 279.828C163.742 279.236 164.394 278.847 165.128 278.66C165.862 278.473 166.623 278.487 167.411 278.7C168.28 278.935 169.003 279.342 169.58 279.92C170.171 280.491 170.57 281.176 170.776 281.978C170.981 282.78 170.959 283.644 170.708 284.57C170.461 285.486 170.044 286.243 169.459 286.843C168.878 287.432 168.186 287.829 167.384 288.035C166.594 288.244 165.765 288.23 164.896 287.995ZM160.211 286.635L163.699 273.742L164.933 274.076L163.184 280.54L162.512 282.334L162.135 284.209L161.392 286.954L160.211 286.635ZM165.105 286.877C165.754 287.053 166.372 287.065 166.96 286.913C167.552 286.75 168.07 286.442 168.515 285.991C168.964 285.528 169.283 284.943 169.475 284.237C169.669 283.518 169.688 282.852 169.531 282.238C169.374 281.624 169.079 281.103 168.648 280.675C168.22 280.236 167.681 279.929 167.033 279.753C166.384 279.578 165.758 279.57 165.156 279.73C164.568 279.882 164.051 280.184 163.606 280.635C163.172 281.089 162.858 281.676 162.664 282.394C162.472 283.101 162.448 283.765 162.59 284.388C162.747 285.002 163.04 285.529 163.468 285.968C163.911 286.399 164.457 286.702 165.105 286.877ZM175.838 290.956C174.888 290.699 174.107 290.276 173.496 289.688C172.887 289.088 172.474 288.386 172.257 287.581C172.043 286.765 172.058 285.905 172.302 285.002C172.547 284.098 172.954 283.351 173.524 282.759C174.106 282.17 174.786 281.77 175.565 281.558C176.358 281.338 177.177 281.342 178.023 281.57C178.88 281.802 179.585 282.205 180.139 282.777C180.708 283.341 181.087 284.028 181.278 284.838C181.473 285.637 181.446 286.493 181.198 287.408C181.183 287.466 181.16 287.528 181.129 287.595C181.114 287.653 181.096 287.716 181.078 287.786L173.137 285.638L173.386 284.717L180.666 286.686L180.081 286.92C180.26 286.259 180.273 285.635 180.122 285.047C179.985 284.451 179.712 283.942 179.304 283.521C178.896 283.1 178.373 282.803 177.736 282.63C177.111 282.461 176.51 282.454 175.933 282.609C175.357 282.764 174.859 283.064 174.44 283.51C174.021 283.956 173.72 284.515 173.539 285.187L173.487 285.378C173.299 286.073 173.283 286.728 173.44 287.342C173.612 287.948 173.93 288.475 174.393 288.924C174.87 289.364 175.462 289.679 176.169 289.87C176.725 290.021 177.267 290.062 177.795 289.993C178.335 289.928 178.834 289.74 179.291 289.428L179.769 290.416C179.232 290.792 178.622 291.025 177.94 291.114C177.268 291.206 176.568 291.153 175.838 290.956ZM182.473 292.657L184.941 283.535L186.123 283.855L185.45 286.34L185.446 285.872C185.889 285.246 186.46 284.835 187.16 284.639C187.862 284.431 188.66 284.448 189.552 284.689L189.227 285.888C189.181 285.876 189.135 285.863 189.088 285.851C189.045 285.827 189 285.808 188.954 285.796C187.993 285.536 187.16 285.627 186.455 286.071C185.754 286.503 185.258 287.257 184.967 288.335L183.707 292.991L182.473 292.657ZM189.311 294.507L191.779 285.385L192.961 285.705L192.288 288.19L192.284 287.722C192.727 287.096 193.298 286.685 193.998 286.489C194.701 286.281 195.498 286.298 196.39 286.539L196.065 287.738C196.019 287.726 195.973 287.713 195.926 287.701C195.883 287.677 195.838 287.658 195.792 287.646C194.831 287.386 193.998 287.477 193.294 287.921C192.592 288.353 192.096 289.107 191.805 290.185L190.545 294.841L189.311 294.507ZM195.674 299.94C195.245 299.824 194.853 299.643 194.497 299.397C194.152 299.155 193.878 298.857 193.675 298.504L194.498 297.738C194.67 298.021 194.874 298.256 195.109 298.444C195.352 298.647 195.642 298.793 195.978 298.884C196.383 298.994 196.762 298.972 197.114 298.819C197.475 298.68 197.865 298.363 198.285 297.868L199.238 296.69L199.429 296.536L205.471 289.09L206.687 289.419L199.354 298.399C198.939 298.921 198.528 299.313 198.122 299.576C197.726 299.842 197.33 299.996 196.934 300.038C196.534 300.091 196.114 300.059 195.674 299.94ZM198.971 297.401L197.305 286.88L198.591 287.228L200.043 296.609L198.971 297.401ZM216.019 301.845C215.104 301.597 214.299 301.218 213.604 300.707C212.913 300.184 212.359 299.568 211.941 298.858C211.524 298.149 211.255 297.374 211.135 296.533C211.026 295.695 211.092 294.831 211.333 293.939C211.574 293.047 211.953 292.267 212.47 291.598C212.998 290.933 213.621 290.399 214.339 289.997C215.068 289.598 215.862 289.352 216.72 289.261C217.58 289.158 218.468 289.231 219.383 289.478C220.264 289.716 221.051 290.091 221.746 290.602C222.444 291.102 222.979 291.719 223.352 292.454L222.314 293.05C221.954 292.405 221.503 291.891 220.96 291.508C220.42 291.114 219.803 290.822 219.108 290.634C218.378 290.437 217.666 290.381 216.971 290.467C216.28 290.541 215.64 290.747 215.051 291.085C214.466 291.411 213.957 291.845 213.524 292.387C213.107 292.921 212.799 293.552 212.601 294.282C212.404 295.012 212.35 295.718 212.438 296.401C212.542 297.075 212.763 297.707 213.101 298.296C213.442 298.873 213.891 299.373 214.447 299.797C215.007 300.21 215.652 300.515 216.381 300.712C217.076 300.9 217.756 300.96 218.421 300.891C219.086 300.822 219.737 300.601 220.373 300.226L220.969 301.263C220.276 301.71 219.501 301.979 218.643 302.07C217.786 302.161 216.911 302.086 216.019 301.845ZM226.435 304.644C225.658 304.434 225.02 304.106 224.519 303.66C224.018 303.213 223.684 302.657 223.516 301.99C223.36 301.326 223.4 300.56 223.635 299.691L225.069 294.391L226.302 294.725L224.906 299.886C224.643 300.859 224.681 301.659 225.022 302.285C225.376 302.903 225.988 303.33 226.857 303.565C227.494 303.737 228.079 303.759 228.611 303.629C229.158 303.491 229.621 303.206 229.999 302.774C230.388 302.345 230.677 301.783 230.865 301.088L232.158 296.309L233.391 296.643L230.924 305.765L229.742 305.446L230.419 302.943L230.488 303.447C230.016 304.04 229.422 304.445 228.705 304.661C228.002 304.869 227.245 304.863 226.435 304.644ZM239.047 308.056C238.259 307.843 237.595 307.471 237.055 306.939C236.519 306.396 236.152 305.731 235.954 304.944C235.772 304.149 235.815 303.253 236.084 302.257C236.354 301.261 236.767 300.471 237.322 299.888C237.881 299.294 238.527 298.903 239.261 298.716C239.996 298.529 240.762 298.544 241.562 298.76C242.431 298.995 243.153 299.402 243.73 299.981C244.322 300.551 244.719 301.243 244.922 302.056C245.127 302.858 245.107 303.716 244.859 304.631C244.608 305.558 244.192 306.315 243.61 306.904C243.028 307.492 242.337 307.889 241.535 308.095C240.745 308.304 239.916 308.291 239.047 308.056ZM233.45 310.066L236.83 297.573L238.011 297.893L237.268 300.638L236.653 302.43L236.329 304.319L234.683 310.4L233.45 310.066ZM239.256 306.938C239.905 307.113 240.523 307.125 241.111 306.974C241.702 306.81 242.221 306.503 242.666 306.052C243.114 305.589 243.434 305.004 243.625 304.297C243.817 303.591 243.834 302.93 243.677 302.316C243.52 301.702 243.227 301.175 242.799 300.736C242.371 300.297 241.832 299.99 241.183 299.814C240.535 299.639 239.909 299.631 239.306 299.791C238.715 299.954 238.197 300.262 237.752 300.713C237.318 301.168 237.005 301.748 236.814 302.455C236.623 303.161 236.599 303.826 236.741 304.449C236.898 305.063 237.191 305.59 237.619 306.029C238.062 306.459 238.607 306.762 239.256 306.938ZM249.902 310.993C248.998 310.748 248.241 310.332 247.629 309.744C247.032 309.147 246.625 308.447 246.408 307.642C246.193 306.826 246.208 305.966 246.453 305.062C246.701 304.147 247.121 303.397 247.714 302.812C248.308 302.226 249.011 301.832 249.824 301.63C250.649 301.43 251.513 301.453 252.417 301.697C253.193 301.907 253.853 302.247 254.397 302.718C254.941 303.188 255.311 303.773 255.507 304.472L254.417 304.849C254.23 304.301 253.934 303.854 253.53 303.509C253.126 303.163 252.652 302.917 252.108 302.77C251.459 302.594 250.834 302.586 250.231 302.747C249.631 302.895 249.109 303.195 248.663 303.646C248.218 304.098 247.898 304.683 247.704 305.401C247.51 306.119 247.491 306.785 247.648 307.4C247.805 308.014 248.103 308.542 248.543 308.984C248.986 309.415 249.532 309.718 250.181 309.893C250.725 310.041 251.259 310.067 251.782 309.972C252.304 309.878 252.783 309.647 253.218 309.279L253.97 310.154C253.451 310.648 252.837 310.966 252.127 311.11C251.42 311.242 250.678 311.203 249.902 310.993ZM261.645 314.076L262.19 312.061L262.227 311.717L263.139 308.346C263.349 307.57 263.29 306.914 262.963 306.378C262.647 305.845 262.061 305.462 261.204 305.23C260.613 305.07 260.024 305.017 259.438 305.07C258.852 305.122 258.33 305.261 257.871 305.485L257.565 304.414C258.134 304.145 258.772 303.994 259.477 303.961C260.185 303.917 260.898 303.992 261.617 304.186C262.798 304.506 263.628 305.047 264.105 305.81C264.597 306.565 264.681 307.539 264.359 308.732L262.826 314.396L261.645 314.076ZM258.476 313.313C257.793 313.128 257.226 312.856 256.776 312.498C256.34 312.132 256.043 311.716 255.883 311.25C255.726 310.772 255.718 310.273 255.859 309.752C255.988 309.277 256.214 308.878 256.537 308.555C256.876 308.224 257.331 308.011 257.903 307.918C258.49 307.815 259.218 307.882 260.087 308.117L263.232 308.968L262.983 309.889L259.873 309.047C258.992 308.809 258.336 308.799 257.904 309.018C257.483 309.24 257.21 309.582 257.085 310.046C256.944 310.567 257.034 311.039 257.355 311.461C257.676 311.884 258.201 312.194 258.931 312.391C259.626 312.579 260.264 312.584 260.847 312.406C261.445 312.22 261.941 311.857 262.335 311.317L262.383 312.244C261.988 312.783 261.453 313.154 260.776 313.357C260.112 313.562 259.345 313.548 258.476 313.313ZM267.789 313.203L268.252 311.631L275.334 307.99L276.846 308.399L271.793 311.153L270.939 311.556L267.789 313.203ZM266.177 315.303L269.665 302.41L270.898 302.744L267.411 315.636L266.177 315.303ZM273.249 317.216L270.727 311.443L271.785 310.703L274.76 317.625L273.249 317.216ZM280.107 319.165C279.157 318.908 278.377 318.485 277.765 317.897C277.156 317.297 276.743 316.595 276.526 315.79C276.312 314.974 276.327 314.114 276.571 313.211C276.816 312.307 277.223 311.559 277.793 310.968C278.375 310.379 279.055 309.979 279.834 309.767C280.627 309.547 281.446 309.551 282.292 309.779C283.149 310.011 283.855 310.413 284.408 310.986C284.977 311.55 285.356 312.237 285.548 313.047C285.742 313.845 285.715 314.702 285.468 315.617C285.452 315.675 285.429 315.737 285.398 315.804C285.383 315.862 285.366 315.925 285.347 315.995L277.406 313.847L277.655 312.926L284.936 314.895L284.35 315.129C284.529 314.468 284.542 313.844 284.391 313.256C284.254 312.66 283.981 312.151 283.573 311.73C283.165 311.308 282.642 311.012 282.005 310.839C281.38 310.67 280.779 310.663 280.202 310.818C279.626 310.973 279.128 311.273 278.709 311.719C278.29 312.165 277.99 312.724 277.808 313.396L277.756 313.587C277.568 314.282 277.553 314.937 277.71 315.551C277.881 316.157 278.199 316.684 278.662 317.133C279.139 317.573 279.731 317.888 280.438 318.079C280.994 318.23 281.536 318.271 282.064 318.202C282.604 318.137 283.103 317.949 283.56 317.637L284.039 318.625C283.502 319.001 282.892 319.234 282.209 319.323C281.537 319.415 280.837 319.362 280.107 319.165ZM289.169 321.616C288.416 321.412 287.732 321.115 287.116 320.725C286.504 320.323 286.05 319.908 285.756 319.481L286.575 318.658C286.871 319.036 287.28 319.408 287.803 319.773C288.328 320.127 288.91 320.39 289.547 320.562C290.416 320.797 291.077 320.833 291.532 320.67C291.989 320.496 292.279 320.183 292.401 319.731C292.492 319.395 292.453 319.104 292.283 318.86C292.127 318.606 291.889 318.386 291.566 318.2C291.247 318.001 290.882 317.809 290.472 317.624C290.063 317.439 289.656 317.241 289.252 317.033C288.861 316.827 288.514 316.591 288.214 316.323C287.916 316.044 287.7 315.718 287.565 315.346C287.441 314.976 287.449 314.531 287.59 314.01C287.725 313.512 287.985 313.103 288.369 312.785C288.754 312.466 289.242 312.269 289.835 312.193C290.442 312.109 291.133 312.171 291.909 312.381C292.5 312.541 293.069 312.782 293.616 313.104C294.166 313.414 294.598 313.749 294.911 314.107L294.104 314.952C293.774 314.564 293.393 314.25 292.961 314.008C292.532 313.756 292.086 313.567 291.623 313.441C290.8 313.219 290.153 313.199 289.681 313.382C289.223 313.557 288.935 313.864 288.816 314.304C288.722 314.652 288.753 314.952 288.908 315.205C289.075 315.462 289.316 315.695 289.632 315.905C289.963 316.106 290.328 316.298 290.726 316.48C291.136 316.666 291.535 316.867 291.924 317.084C292.327 317.293 292.679 317.531 292.98 317.799C293.295 318.058 293.515 318.372 293.638 318.742C293.777 319.102 293.779 319.532 293.644 320.03C293.5 320.563 293.224 320.985 292.816 321.298C292.423 321.602 291.913 321.787 291.286 321.853C290.674 321.911 289.968 321.832 289.169 321.616Z" fill="#F0475E"/>
<path d="M269.464 354.522L108.259 310.91C100.262 308.747 92.0255 313.476 89.862 321.472L53.0397 457.579C50.8763 465.576 55.6051 473.813 63.6019 475.976L224.807 519.588C232.803 521.752 241.04 517.023 243.203 509.026L280.026 372.919C282.189 364.922 277.46 356.686 269.464 354.522Z" fill="#E6E6E6"/>
<g clip-path="url(#clip1_2_435)">
<path d="M154.466 470.915C185.029 479.184 216.524 461.051 224.813 430.414C233.101 399.778 215.044 368.239 184.481 359.97C153.919 351.702 122.424 369.835 114.135 400.471C105.847 431.108 123.904 462.647 154.466 470.915Z" fill="#F0475E"/>
<path opacity="0.2" d="M158.519 455.932C149.174 453.404 140.997 447.706 135.381 439.809C129.765 431.912 127.058 422.305 127.72 412.624C128.383 402.944 132.374 393.789 139.014 386.719C145.655 379.65 154.533 375.103 164.136 373.854C173.739 372.605 183.474 374.731 191.68 379.869C199.887 385.008 206.059 392.841 209.143 402.034C212.228 411.228 212.035 421.212 208.597 430.287C205.159 439.361 198.689 446.964 190.289 451.8C185.526 454.559 180.266 456.345 174.813 457.054C169.36 457.764 163.821 457.382 158.519 455.932ZM179.751 377.45C158.853 371.796 137.24 384.24 131.572 405.189C125.904 426.138 138.296 447.781 159.194 453.435C180.093 459.089 201.706 446.645 207.374 425.696C213.041 404.747 200.65 383.104 179.751 377.45Z" fill="black"/>
<path d="M158.859 454.684C180.479 460.533 202.759 447.706 208.622 426.034C214.485 404.361 201.712 382.051 180.092 376.202C158.472 370.353 136.192 383.18 130.329 404.852C124.466 426.524 137.239 448.835 158.859 454.684Z" fill="#3F3D56"/>
<path d="M144.609 391.876C144.47 391.213 144.462 390.529 144.587 389.862C144.712 389.196 144.967 388.561 145.337 387.993C145.707 387.425 146.185 386.935 146.743 386.552C147.302 386.169 147.93 385.9 148.592 385.761C149.254 385.621 149.937 385.614 150.602 385.739C151.267 385.864 151.9 386.119 152.466 386.49C153.032 386.86 153.519 387.339 153.9 387.899C154.281 388.459 154.548 389.088 154.686 389.752L159.856 414.514C159.995 415.178 160.003 415.862 159.878 416.528C159.753 417.195 159.498 417.83 159.128 418.398C158.758 418.966 158.28 419.455 157.722 419.838C157.163 420.221 156.535 420.49 155.872 420.63C155.21 420.769 154.527 420.777 153.863 420.652C153.198 420.527 152.565 420.272 151.999 419.901C151.433 419.53 150.945 419.051 150.565 418.492C150.184 417.932 149.917 417.302 149.779 416.639L144.609 391.876Z" fill="#FF6584"/>
<path opacity="0.2" d="M145.184 394.638L144.945 393.495C148.029 392.2 151.416 391.55 155.022 391.371L155.261 392.513C151.47 392.292 148.042 392.852 145.184 394.638Z" fill="black"/>
<path opacity="0.2" d="M146.297 399.971L146.058 398.829C149.143 397.533 152.529 396.884 156.136 396.704L156.374 397.847C152.583 397.625 149.156 398.185 146.297 399.971Z" fill="black"/>
<path opacity="0.2" d="M147.41 405.305L147.172 404.162C150.256 402.867 153.642 402.217 157.249 402.037L157.487 403.18C153.697 402.958 150.269 403.519 147.41 405.305Z" fill="black"/>
<path opacity="0.2" d="M148.526 410.639L148.287 409.496C151.371 408.201 154.758 407.551 158.364 407.371L158.603 408.514C154.812 408.292 151.384 408.853 148.526 410.639Z" fill="black"/>
<path opacity="0.2" d="M149.637 415.972L149.398 414.829C152.483 413.534 155.869 412.884 159.475 412.705L159.714 413.848C155.923 413.626 152.495 414.186 149.637 415.972Z" fill="black"/>
<path d="M134.105 397.782C133.966 397.118 133.958 396.434 134.083 395.768C134.208 395.102 134.463 394.466 134.833 393.898C135.203 393.331 135.681 392.841 136.239 392.458C136.798 392.075 137.426 391.806 138.088 391.667C138.751 391.527 139.433 391.52 140.098 391.645C140.763 391.77 141.396 392.025 141.962 392.396C142.528 392.766 143.015 393.245 143.396 393.805C143.777 394.364 144.044 394.994 144.182 395.657L149.352 420.42C149.63 421.758 149.366 423.153 148.619 424.297C147.871 425.442 146.702 426.243 145.366 426.525C144.031 426.806 142.639 426.545 141.497 425.799C140.355 425.052 139.556 423.882 139.275 422.544L134.105 397.782Z" fill="#FF6584"/>
<path opacity="0.2" d="M134.68 400.543L134.441 399.4C137.526 398.105 140.912 397.455 144.518 397.276L144.757 398.419C140.966 398.197 137.538 398.757 134.68 400.543Z" fill="black"/>
<path opacity="0.2" d="M135.795 405.877L135.556 404.734C138.641 403.439 142.027 402.789 145.634 402.61L145.872 403.752C142.081 403.531 138.654 404.091 135.795 405.877Z" fill="black"/>
<path opacity="0.2" d="M136.908 411.21L136.67 410.067C139.754 408.772 143.14 408.122 146.747 407.943L146.986 409.086C143.195 408.864 139.767 409.424 136.908 411.21Z" fill="black"/>
<path opacity="0.2" d="M138.022 416.544L137.783 415.401C140.867 414.106 144.254 413.456 147.86 413.277L148.099 414.42C144.308 414.198 140.88 414.758 138.022 416.544Z" fill="black"/>
<path opacity="0.2" d="M139.135 421.877L138.896 420.734C141.981 419.439 145.367 418.789 148.973 418.61L149.212 419.753C145.421 419.531 141.994 420.091 139.135 421.877Z" fill="black"/>
<path d="M195.294 423.768L195.329 423.777C196.518 424.11 197.779 424.075 198.948 423.678C200.118 423.282 201.141 422.541 201.885 421.553C203.425 419.486 204.553 417.141 205.209 414.647C207.997 404.096 201.785 393.14 191.316 390.152C186.858 388.878 182.095 389.189 177.836 391.032C173.576 392.875 170.082 396.137 167.946 400.264C165.809 404.391 165.161 409.129 166.112 413.677C167.064 418.224 169.555 422.299 173.164 425.213C174.117 425.986 175.281 426.453 176.504 426.552C177.727 426.65 178.952 426.376 180.018 425.765C182.308 424.439 184.837 423.579 187.458 423.237C190.08 422.894 192.743 423.074 195.294 423.768Z" fill="#E6E6E6"/>
<path d="M186.922 415.186C190.459 416.143 194.105 414.044 195.065 410.498C196.024 406.952 193.934 403.301 190.396 402.344C186.858 401.386 183.212 403.485 182.253 407.032C181.294 410.578 183.384 414.229 186.922 415.186Z" fill="#F9A825"/>
<path d="M174.933 404.276C175.35 404.389 175.779 404.142 175.893 403.724C176.006 403.306 175.759 402.876 175.343 402.763C174.926 402.65 174.496 402.898 174.383 403.316C174.27 403.733 174.516 404.163 174.933 404.276Z" fill="#3F3D56"/>
<path d="M149.828 398.25C150.245 398.363 150.674 398.116 150.787 397.698C150.9 397.28 150.654 396.85 150.237 396.737C149.82 396.624 149.391 396.872 149.278 397.289C149.165 397.707 149.411 398.137 149.828 398.25Z" fill="#3F3D56"/>
<path d="M181.074 397.524C181.491 397.637 181.92 397.39 182.033 396.972C182.146 396.554 181.9 396.124 181.483 396.012C181.066 395.899 180.637 396.146 180.524 396.564C180.411 396.982 180.657 397.412 181.074 397.524Z" fill="#3F3D56"/>
<path d="M175.156 419.323C175.573 419.436 176.002 419.188 176.115 418.77C176.228 418.353 175.982 417.923 175.565 417.81C175.148 417.697 174.719 417.944 174.606 418.362C174.493 418.78 174.739 419.21 175.156 419.323Z" fill="#3F3D56"/>
<path d="M196.422 400.001C196.838 400.113 197.268 399.866 197.381 399.448C197.494 399.03 197.248 398.6 196.831 398.488C196.414 398.375 195.985 398.622 195.872 399.04C195.758 399.458 196.005 399.888 196.422 400.001Z" fill="#3F3D56"/>
<path d="M142.07 407.501C142.487 407.613 142.916 407.366 143.029 406.948C143.142 406.53 142.896 406.1 142.479 405.988C142.062 405.875 141.633 406.122 141.52 406.54C141.407 406.958 141.653 407.388 142.07 407.501Z" fill="#3F3D56"/>
<path d="M144.642 419.874C145.059 419.987 145.488 419.739 145.601 419.322C145.715 418.904 145.468 418.474 145.052 418.361C144.635 418.248 144.205 418.495 144.092 418.913C143.979 419.331 144.225 419.761 144.642 419.874Z" fill="#3F3D56"/>
<path d="M178.344 432.773C179.916 433.199 181.537 432.266 181.963 430.69C182.389 429.114 181.46 427.491 179.888 427.066C178.316 426.64 176.695 427.573 176.269 429.149C175.843 430.725 176.771 432.348 178.344 432.773Z" fill="#FF6584"/>
<path opacity="0.2" d="M181.204 430.676C181.051 431.244 180.678 431.727 180.169 432.02C179.66 432.313 179.056 432.392 178.49 432.239C177.923 432.085 177.441 431.713 177.15 431.203C176.858 430.693 176.78 430.088 176.934 429.521" fill="black"/>
<path opacity="0.2" d="M177.03 429.164C177.184 428.596 177.556 428.112 178.065 427.819C178.574 427.526 179.178 427.448 179.745 427.601C180.311 427.754 180.793 428.127 181.085 428.636C181.377 429.146 181.454 429.751 181.301 430.319" fill="black"/>
<path d="M178.24 428.917C178.338 428.943 178.451 428.845 178.491 428.697C178.531 428.55 178.483 428.408 178.385 428.382C178.287 428.355 178.175 428.453 178.135 428.601C178.095 428.749 178.142 428.89 178.24 428.917Z" fill="#FF6584"/>
<path d="M179.406 428.85C179.504 428.876 179.617 428.778 179.657 428.63C179.697 428.482 179.649 428.341 179.551 428.314C179.453 428.288 179.341 428.386 179.301 428.534C179.261 428.682 179.308 428.823 179.406 428.85Z" fill="#FF6584"/>
<path d="M178.779 431.168C178.878 431.195 178.99 431.097 179.03 430.949C179.07 430.801 179.022 430.66 178.924 430.633C178.826 430.607 178.714 430.705 178.674 430.853C178.634 431 178.681 431.142 178.779 431.168Z" fill="#FF6584"/>
<path d="M180.232 430.03C180.331 430.057 180.443 429.958 180.483 429.811C180.523 429.663 180.475 429.522 180.377 429.495C180.279 429.468 180.167 429.567 180.127 429.714C180.087 429.862 180.134 430.003 180.232 430.03Z" fill="#FF6584"/>
<path d="M179.525 431.944C179.624 431.97 179.736 431.872 179.776 431.724C179.816 431.577 179.768 431.435 179.67 431.409C179.572 431.382 179.46 431.48 179.42 431.628C179.38 431.776 179.427 431.917 179.525 431.944Z" fill="#FF6584"/>
<path d="M177.629 430.474C177.727 430.501 177.839 430.403 177.879 430.255C177.919 430.107 177.872 429.966 177.774 429.939C177.675 429.913 177.563 430.011 177.523 430.159C177.483 430.306 177.531 430.448 177.629 430.474Z" fill="#FF6584"/>
<path d="M186.113 426.644C187.686 427.069 189.306 426.137 189.732 424.56C190.159 422.984 189.23 421.362 187.658 420.936C186.085 420.511 184.465 421.444 184.038 423.02C183.612 424.596 184.541 426.219 186.113 426.644Z" fill="#FF6584"/>
<path opacity="0.2" d="M188.974 424.546C188.82 425.114 188.448 425.598 187.939 425.891C187.43 426.184 186.826 426.262 186.259 426.109C185.693 425.956 185.211 425.584 184.919 425.074C184.627 424.564 184.55 423.959 184.703 423.391" fill="black"/>
<path opacity="0.2" d="M184.798 423.034C184.951 422.467 185.324 421.983 185.833 421.69C186.342 421.397 186.946 421.318 187.512 421.471C188.079 421.625 188.561 421.997 188.852 422.507C189.144 423.017 189.222 423.622 189.068 424.19" fill="black"/>
<path d="M186.012 422.788C186.11 422.815 186.222 422.717 186.262 422.569C186.302 422.421 186.255 422.28 186.156 422.253C186.058 422.227 185.946 422.325 185.906 422.473C185.866 422.62 185.913 422.762 186.012 422.788Z" fill="#FF6584"/>
<path d="M187.174 422.72C187.272 422.747 187.384 422.648 187.424 422.501C187.464 422.353 187.417 422.211 187.319 422.185C187.22 422.158 187.108 422.257 187.068 422.404C187.028 422.552 187.076 422.693 187.174 422.72Z" fill="#FF6584"/>
<path d="M186.547 425.039C186.645 425.065 186.757 424.967 186.797 424.819C186.837 424.672 186.79 424.53 186.692 424.504C186.593 424.477 186.481 424.575 186.441 424.723C186.401 424.871 186.449 425.012 186.547 425.039Z" fill="#FF6584"/>
<path d="M188.002 423.901C188.1 423.927 188.212 423.829 188.252 423.681C188.292 423.533 188.245 423.392 188.147 423.366C188.048 423.339 187.936 423.437 187.896 423.585C187.856 423.733 187.904 423.874 188.002 423.901Z" fill="#FF6584"/>
<path d="M187.293 425.815C187.391 425.841 187.503 425.743 187.543 425.595C187.583 425.448 187.536 425.306 187.438 425.28C187.339 425.253 187.227 425.351 187.187 425.499C187.147 425.647 187.195 425.788 187.293 425.815Z" fill="#FF6584"/>
<path d="M185.398 424.345C185.497 424.372 185.609 424.273 185.649 424.126C185.689 423.978 185.641 423.836 185.543 423.81C185.445 423.783 185.333 423.882 185.293 424.029C185.253 424.177 185.3 424.318 185.398 424.345Z" fill="#FF6584"/>
<path d="M190.744 432.109C192.317 432.534 193.937 431.601 194.363 430.025C194.79 428.449 193.861 426.826 192.288 426.401C190.716 425.975 189.096 426.908 188.669 428.484C188.243 430.061 189.172 431.683 190.744 432.109Z" fill="#F0475E"/>
<path opacity="0.2" d="M193.605 430.011C193.451 430.578 193.079 431.062 192.57 431.355C192.061 431.648 191.456 431.727 190.89 431.574C190.324 431.42 189.842 431.048 189.55 430.538C189.258 430.028 189.18 429.423 189.334 428.855" fill="black"/>
<path opacity="0.2" d="M189.431 428.499C189.584 427.931 189.957 427.448 190.466 427.155C190.975 426.861 191.579 426.783 192.145 426.936C192.711 427.089 193.193 427.462 193.485 427.971C193.777 428.481 193.855 429.086 193.701 429.654" fill="black"/>
<path d="M190.643 428.253C190.741 428.279 190.853 428.181 190.893 428.033C190.933 427.885 190.886 427.744 190.787 427.718C190.689 427.691 190.577 427.789 190.537 427.937C190.497 428.085 190.544 428.226 190.643 428.253Z" fill="#F0475E"/>
<path d="M191.809 428.185C191.907 428.211 192.019 428.113 192.059 427.965C192.099 427.817 192.052 427.676 191.953 427.649C191.855 427.623 191.743 427.721 191.703 427.869C191.663 428.017 191.71 428.158 191.809 428.185Z" fill="#F0475E"/>
<path d="M191.18 430.503C191.278 430.53 191.39 430.432 191.43 430.284C191.47 430.136 191.423 429.995 191.324 429.968C191.226 429.942 191.114 430.04 191.074 430.188C191.034 430.335 191.081 430.477 191.18 430.503Z" fill="#F0475E"/>
<path d="M192.633 429.365C192.731 429.392 192.843 429.294 192.883 429.146C192.923 428.998 192.876 428.857 192.778 428.83C192.679 428.804 192.567 428.902 192.527 429.05C192.487 429.197 192.535 429.339 192.633 429.365Z" fill="#F0475E"/>
<path d="M191.924 431.279C192.022 431.306 192.134 431.207 192.174 431.06C192.214 430.912 192.167 430.771 192.069 430.744C191.97 430.717 191.858 430.816 191.818 430.963C191.778 431.111 191.826 431.252 191.924 431.279Z" fill="#F0475E"/>
<path d="M190.029 429.81C190.128 429.836 190.24 429.738 190.28 429.59C190.32 429.442 190.272 429.301 190.174 429.274C190.076 429.248 189.964 429.346 189.924 429.494C189.884 429.642 189.931 429.783 190.029 429.81Z" fill="#F0475E"/>
<path d="M176.414 428.614C177.987 429.04 179.607 428.107 180.033 426.531C180.46 424.954 179.531 423.332 177.958 422.906C176.386 422.481 174.766 423.414 174.339 424.99C173.913 426.566 174.842 428.189 176.414 428.614Z" fill="#F0475E"/>
<path opacity="0.2" d="M179.274 426.517C179.121 427.084 178.749 427.568 178.24 427.861C177.731 428.154 177.126 428.233 176.56 428.079C175.994 427.926 175.512 427.554 175.22 427.044C174.928 426.534 174.85 425.929 175.004 425.361" fill="black"/>
<path opacity="0.2" d="M175.101 425.005C175.254 424.437 175.626 423.953 176.135 423.66C176.645 423.367 177.249 423.289 177.815 423.442C178.381 423.595 178.863 423.968 179.155 424.477C179.447 424.987 179.525 425.592 179.371 426.16" fill="black"/>
<path d="M176.311 424.758C176.409 424.784 176.521 424.686 176.561 424.538C176.601 424.391 176.554 424.249 176.455 424.223C176.357 424.196 176.245 424.294 176.205 424.442C176.165 424.59 176.212 424.731 176.311 424.758Z" fill="#F0475E"/>
<path d="M177.477 424.69C177.575 424.717 177.687 424.619 177.727 424.471C177.767 424.323 177.72 424.182 177.621 424.155C177.523 424.128 177.411 424.227 177.371 424.374C177.331 424.522 177.378 424.664 177.477 424.69Z" fill="#F0475E"/>
<path d="M176.85 427.009C176.948 427.036 177.06 426.938 177.1 426.79C177.14 426.642 177.093 426.501 176.994 426.474C176.896 426.448 176.784 426.546 176.744 426.694C176.704 426.841 176.751 426.983 176.85 427.009Z" fill="#F0475E"/>
<path d="M178.303 425.871C178.401 425.897 178.513 425.799 178.553 425.651C178.593 425.504 178.546 425.362 178.447 425.336C178.349 425.309 178.237 425.407 178.197 425.555C178.157 425.703 178.204 425.844 178.303 425.871Z" fill="#F0475E"/>
<path d="M177.594 427.785C177.692 427.811 177.804 427.713 177.844 427.565C177.884 427.418 177.837 427.276 177.738 427.25C177.64 427.223 177.528 427.321 177.488 427.469C177.448 427.617 177.495 427.758 177.594 427.785Z" fill="#F0475E"/>
<path d="M175.699 426.315C175.797 426.342 175.91 426.244 175.95 426.096C175.989 425.948 175.942 425.807 175.844 425.78C175.746 425.753 175.634 425.852 175.594 425.999C175.554 426.147 175.601 426.289 175.699 426.315Z" fill="#F0475E"/>
<path d="M182.483 431.596C184.055 432.021 185.675 431.088 186.102 429.512C186.528 427.936 185.599 426.314 184.027 425.888C182.454 425.463 180.834 426.396 180.408 427.972C179.981 429.548 180.91 431.171 182.483 431.596Z" fill="#F0475E"/>
<path opacity="0.2" d="M185.341 429.498C185.265 429.779 185.134 430.043 184.957 430.273C184.779 430.504 184.558 430.697 184.306 430.842C184.054 430.988 183.776 431.082 183.488 431.119C183.2 431.156 182.907 431.137 182.627 431.061C182.346 430.985 182.083 430.855 181.853 430.677C181.624 430.499 181.431 430.278 181.286 430.025C181.142 429.773 181.048 429.495 181.011 429.206C180.974 428.917 180.994 428.624 181.07 428.343" fill="black"/>
<path opacity="0.2" d="M181.165 427.986C181.241 427.705 181.372 427.441 181.549 427.211C181.727 426.98 181.948 426.787 182.2 426.642C182.452 426.496 182.73 426.402 183.018 426.365C183.306 426.328 183.599 426.347 183.879 426.423C184.16 426.499 184.422 426.629 184.652 426.807C184.882 426.985 185.075 427.206 185.22 427.459C185.364 427.711 185.458 427.989 185.495 428.278C185.532 428.567 185.512 428.86 185.436 429.141" fill="black"/>
<path d="M182.379 427.74C182.477 427.766 182.589 427.668 182.629 427.52C182.669 427.373 182.622 427.231 182.524 427.205C182.425 427.178 182.313 427.276 182.273 427.424C182.233 427.572 182.281 427.713 182.379 427.74Z" fill="#F0475E"/>
<path d="M183.543 427.671C183.641 427.698 183.753 427.6 183.793 427.452C183.833 427.304 183.786 427.163 183.688 427.136C183.589 427.11 183.477 427.208 183.437 427.356C183.397 427.503 183.445 427.645 183.543 427.671Z" fill="#F0475E"/>
<path d="M182.914 429.99C183.012 430.017 183.124 429.919 183.164 429.771C183.204 429.623 183.157 429.482 183.059 429.455C182.961 429.429 182.848 429.527 182.808 429.675C182.768 429.823 182.816 429.964 182.914 429.99Z" fill="#F0475E"/>
<path d="M184.371 428.853C184.469 428.879 184.581 428.781 184.621 428.633C184.661 428.486 184.614 428.344 184.516 428.318C184.418 428.291 184.305 428.389 184.266 428.537C184.226 428.685 184.273 428.826 184.371 428.853Z" fill="#F0475E"/>
<path d="M183.66 430.766C183.758 430.793 183.87 430.694 183.91 430.547C183.95 430.399 183.903 430.258 183.805 430.231C183.707 430.204 183.595 430.303 183.555 430.45C183.515 430.598 183.562 430.74 183.66 430.766Z" fill="#F0475E"/>
<path d="M181.768 429.297C181.866 429.324 181.978 429.225 182.018 429.078C182.058 428.93 182.011 428.789 181.912 428.762C181.814 428.735 181.702 428.834 181.662 428.981C181.622 429.129 181.669 429.271 181.768 429.297Z" fill="#F0475E"/>
<path d="M186.109 435.832C187.682 436.257 189.302 435.324 189.729 433.748C190.155 432.172 189.226 430.549 187.654 430.124C186.081 429.699 184.461 430.631 184.035 432.208C183.608 433.784 184.537 435.406 186.109 435.832Z" fill="#FF6584"/>
<path opacity="0.2" d="M188.97 433.734C188.816 434.302 188.444 434.785 187.935 435.078C187.426 435.371 186.822 435.45 186.255 435.297C185.689 435.143 185.207 434.771 184.915 434.261C184.623 433.752 184.546 433.146 184.699 432.579" fill="black"/>
<path opacity="0.2" d="M184.794 432.222C184.948 431.654 185.32 431.171 185.829 430.878C186.338 430.585 186.942 430.506 187.508 430.659C188.075 430.812 188.557 431.185 188.849 431.695C189.14 432.204 189.218 432.81 189.065 433.377" fill="black"/>
<path d="M186.008 431.976C186.106 432.002 186.218 431.904 186.258 431.756C186.298 431.608 186.251 431.467 186.153 431.44C186.054 431.414 185.942 431.512 185.902 431.66C185.862 431.808 185.91 431.949 186.008 431.976Z" fill="#FF6584"/>
<path d="M187.172 431.907C187.27 431.934 187.382 431.836 187.422 431.688C187.462 431.54 187.415 431.399 187.317 431.372C187.218 431.346 187.106 431.444 187.066 431.592C187.026 431.74 187.074 431.881 187.172 431.907Z" fill="#FF6584"/>
<path d="M186.545 434.226C186.643 434.253 186.755 434.155 186.795 434.007C186.835 433.859 186.788 433.718 186.69 433.691C186.591 433.665 186.479 433.763 186.439 433.911C186.399 434.058 186.447 434.2 186.545 434.226Z" fill="#FF6584"/>
<path d="M187.996 433.088C188.094 433.115 188.206 433.016 188.246 432.869C188.286 432.721 188.239 432.58 188.141 432.553C188.043 432.526 187.93 432.625 187.891 432.772C187.851 432.92 187.898 433.062 187.996 433.088Z" fill="#FF6584"/>
<path d="M187.289 435.002C187.387 435.029 187.499 434.931 187.539 434.783C187.579 434.635 187.532 434.494 187.434 434.467C187.336 434.441 187.223 434.539 187.183 434.687C187.143 434.835 187.191 434.976 187.289 435.002Z" fill="#FF6584"/>
<path d="M185.394 433.532C185.493 433.559 185.605 433.461 185.645 433.313C185.685 433.165 185.638 433.024 185.539 432.997C185.441 432.971 185.329 433.069 185.289 433.217C185.249 433.365 185.296 433.506 185.394 433.532Z" fill="#FF6584"/>
<path d="M153.007 412.948C153.424 413.061 153.854 412.814 153.967 412.396C154.08 411.978 153.834 411.548 153.417 411.435C153 411.323 152.57 411.57 152.457 411.988C152.344 412.405 152.591 412.836 153.007 412.948Z" fill="#3F3D56"/>
<path d="M166.298 445.199L149.537 435.258L150.931 432.86L167.691 442.802L166.298 445.199Z" fill="#F9A825"/>
<path d="M163.876 443.616C157.347 443.128 150.972 441.403 145.088 438.533L145.812 435.854C151.753 438.57 158.101 440.287 164.601 440.937L163.876 443.616Z" fill="#F9A825"/>
<path d="M167.981 436.1C161.453 435.612 155.077 433.887 149.193 431.017L149.918 428.337C155.859 431.053 162.206 432.771 168.706 433.42L167.981 436.1Z" fill="#F9A825"/>
<path d="M173.608 441.073C167.079 440.585 160.704 438.86 154.82 435.99L155.545 433.311C161.486 436.027 167.833 437.744 174.333 438.393L173.608 441.073Z" fill="#F9A825"/>
<path d="M174.366 444.537C167.837 444.049 161.462 442.325 155.578 439.455L156.303 436.775C162.243 439.491 168.591 441.208 175.091 441.858L174.366 444.537Z" fill="#F9A825"/>
<path d="M178.802 449.997L159.421 448.103L159.706 445.343L179.087 447.236L178.802 449.997Z" fill="#F9A825"/>
<path d="M175.941 449.591C169.797 451.914 163.272 453.055 156.709 452.954L156.268 450.221C162.818 450.16 169.314 449.024 175.5 446.858L175.941 449.591Z" fill="#F9A825"/>
<path d="M176.593 441.048C170.449 443.371 163.925 444.512 157.362 444.411L156.921 441.678C163.47 441.617 169.966 440.481 176.152 438.315L176.593 441.048Z" fill="#F9A825"/>
<path d="M183.775 443.164C177.631 445.487 171.106 446.628 164.543 446.527L164.102 443.795C170.652 443.733 177.148 442.597 183.334 440.432L183.775 443.164Z" fill="#F9A825"/>
<path d="M185.89 445.978C179.746 448.301 173.222 449.442 166.659 449.341L166.218 446.609C172.767 446.547 179.263 445.411 185.449 443.246L185.89 445.978Z" fill="#F9A825"/>
<path d="M164.845 434.672L163.955 434.432L163.714 435.323L164.603 435.564L164.845 434.672Z" fill="#00BF71"/>
<path d="M163.315 450.913L162.426 450.672L162.185 451.564L163.074 451.805L163.315 450.913Z" fill="#00BF71"/>
<path d="M153.28 431.544L152.391 431.303L152.149 432.195L153.039 432.436L153.28 431.544Z" fill="#00BF71"/>
<path d="M170.929 448.187L170.039 447.946L169.798 448.838L170.687 449.079L170.929 448.187Z" fill="#00BF71"/>
<path d="M172.862 443.158L171.973 442.917L171.731 443.809L172.621 444.05L172.862 443.158Z" fill="#00BF71"/>
<path d="M158.847 436.746L158.006 435.766L157.447 436.249L158.288 437.229L158.847 436.746Z" fill="#00BF71"/>
<path d="M168.814 441.548L167.973 440.568L167.413 441.05L168.254 442.03L168.814 441.548Z" fill="#00BF71"/>
<path d="M155.085 441.471L154.244 440.491L153.685 440.974L154.526 441.954L155.085 441.471Z" fill="#00BF71"/>
<path d="M161.623 443.185L162.602 442.341L162.121 441.781L161.142 442.625L161.623 443.185Z" fill="#00BF71"/>
<path d="M166.091 445.733L167.07 444.889L166.59 444.329L165.611 445.173L166.091 445.733Z" fill="#00BF71"/>
<path d="M180.062 444.918L181.041 444.074L180.56 443.515L179.582 444.359L180.062 444.918Z" fill="#00BF71"/>
</g>
<path d="M76.2474 460.786L82.6763 462.525L82.3801 463.62L75.9513 461.88L76.2474 460.786ZM74.8681 466.435L82.1831 468.414L81.8823 469.526L73.2815 467.2L76.572 455.037L84.9121 457.293L84.6113 458.405L77.5569 456.497L74.8681 466.435ZM91.792 462.324C92.5333 462.525 93.1428 462.845 93.6205 463.285C94.1129 463.717 94.4371 464.265 94.5932 464.928C94.7608 465.595 94.7256 466.369 94.4874 467.249L93.0537 472.549L91.82 472.215L93.2208 467.037C93.4809 466.076 93.4335 465.286 93.0787 464.668C92.7385 464.041 92.134 463.61 91.2652 463.375C90.6166 463.2 90.0129 463.18 89.4543 463.314C88.9105 463.441 88.438 463.717 88.0368 464.143C87.6503 464.56 87.3631 465.117 87.175 465.812L85.8776 470.607L84.644 470.274L87.1119 461.152L88.2934 461.471L87.6165 463.973L87.5523 463.452C88.0205 462.87 88.6233 462.48 89.3607 462.282C90.1012 462.072 90.9116 462.086 91.792 462.324ZM99.3426 477.961C98.5086 477.735 97.7422 477.397 97.0435 476.947C96.3448 476.497 95.8191 475.982 95.4664 475.402L96.3457 474.633C96.6709 475.131 97.1165 475.575 97.6824 475.964C98.2569 476.368 98.8974 476.666 99.604 476.857C100.762 477.17 101.687 477.128 102.379 476.731C103.068 476.346 103.566 475.585 103.873 474.45L104.488 472.174L105.085 470.657L105.387 469.06L106.134 466.298L107.316 466.617L105.149 474.628C104.722 476.203 104.023 477.25 103.049 477.77C102.084 478.305 100.848 478.368 99.3426 477.961ZM100.146 474.095C99.2774 473.86 98.5456 473.463 97.9509 472.904C97.3593 472.334 96.9517 471.658 96.728 470.876C96.5159 470.098 96.5274 469.274 96.7624 468.406C96.9975 467.537 97.4012 466.826 97.9737 466.272C98.5609 465.71 99.2521 465.337 100.047 465.155C100.843 464.972 101.675 464.998 102.544 465.233C103.354 465.453 104.039 465.818 104.596 466.329C105.154 466.841 105.535 467.478 105.739 468.242C105.942 469.006 105.916 469.862 105.659 470.812C105.402 471.762 104.993 472.516 104.432 473.072C103.871 473.629 103.219 473.994 102.476 474.166C101.734 474.338 100.957 474.314 100.146 474.095ZM100.564 473.033C101.236 473.215 101.87 473.237 102.466 473.1C103.066 472.951 103.584 472.669 104.02 472.252C104.459 471.824 104.768 471.28 104.946 470.62C105.125 469.959 105.131 469.339 104.965 468.76C104.798 468.18 104.492 467.681 104.046 467.262C103.603 466.831 103.046 466.525 102.374 466.343C101.713 466.165 101.078 466.148 100.467 466.294C99.8701 466.431 99.3539 466.707 98.9179 467.124C98.4936 467.544 98.1921 468.084 98.0135 468.744C97.8348 469.404 97.8214 470.028 97.9731 470.616C98.1395 471.196 98.4442 471.701 98.8871 472.132C99.3447 472.554 99.9037 472.854 100.564 473.033ZM108.281 476.668L111.769 463.776L113.002 464.109L109.514 477.002L108.281 476.668ZM112.947 477.931L115.415 468.809L116.648 469.142L114.18 478.264L112.947 477.931ZM116.586 466.962C116.331 466.893 116.14 466.748 116.013 466.528C115.886 466.307 115.856 466.075 115.922 465.832C115.988 465.588 116.129 465.409 116.347 465.294C116.568 465.167 116.805 465.138 117.06 465.207C117.315 465.276 117.507 465.415 117.637 465.625C117.767 465.834 117.799 466.06 117.733 466.303C117.665 466.558 117.52 466.749 117.299 466.876C117.09 467.005 116.852 467.034 116.586 466.962ZM120.039 479.943C119.287 479.739 118.602 479.442 117.987 479.052C117.375 478.65 116.921 478.235 116.627 477.807L117.446 476.985C117.741 477.363 118.151 477.735 118.673 478.1C119.199 478.454 119.781 478.717 120.418 478.889C121.287 479.124 121.948 479.16 122.402 478.997C122.86 478.822 123.15 478.509 123.272 478.057C123.363 477.722 123.323 477.431 123.153 477.186C122.998 476.933 122.759 476.713 122.437 476.526C122.118 476.328 121.753 476.136 121.343 475.951C120.933 475.765 120.527 475.568 120.123 475.36C119.731 475.154 119.385 474.917 119.085 474.65C118.787 474.37 118.571 474.045 118.435 473.672C118.311 473.303 118.32 472.858 118.461 472.337C118.596 471.838 118.855 471.43 119.24 471.111C119.625 470.793 120.113 470.596 120.705 470.52C121.313 470.435 122.004 470.498 122.78 470.708C123.371 470.868 123.94 471.109 124.487 471.431C125.037 471.741 125.468 472.075 125.782 472.434L124.975 473.278C124.645 472.891 124.264 472.576 123.832 472.335C123.403 472.082 122.957 471.893 122.494 471.768C121.671 471.545 121.024 471.526 120.552 471.709C120.094 471.883 119.806 472.191 119.687 472.631C119.593 472.978 119.623 473.279 119.779 473.532C119.945 473.789 120.187 474.022 120.503 474.232C120.834 474.433 121.198 474.625 121.597 474.807C122.006 474.993 122.406 475.194 122.795 475.411C123.198 475.62 123.55 475.858 123.851 476.126C124.166 476.385 124.385 476.699 124.509 477.068C124.648 477.429 124.65 477.858 124.515 478.356C124.371 478.889 124.095 479.312 123.687 479.624C123.294 479.928 122.784 480.113 122.157 480.18C121.545 480.238 120.839 480.159 120.039 479.943ZM133.245 473.539C133.986 473.74 134.596 474.06 135.074 474.5C135.566 474.932 135.89 475.479 136.046 476.143C136.214 476.81 136.179 477.584 135.941 478.464L134.507 483.763L133.273 483.43L134.674 478.252C134.934 477.29 134.887 476.501 134.532 475.883C134.192 475.256 133.587 474.825 132.718 474.59C132.07 474.415 131.466 474.394 130.907 474.529C130.364 474.655 129.891 474.932 129.49 475.358C129.103 475.775 128.816 476.331 128.628 477.026L127.331 481.822L126.097 481.488L129.585 468.596L130.819 468.93L129.122 475.202L129.005 474.667C129.474 474.085 130.076 473.695 130.814 473.497C131.554 473.287 132.365 473.301 133.245 473.539ZM142.647 485.966L145.938 473.803L151.185 475.223C152.54 475.589 153.515 476.145 154.109 476.89C154.715 477.638 154.883 478.51 154.613 479.507C154.435 480.167 154.128 480.681 153.693 481.048C153.269 481.418 152.76 481.647 152.164 481.734C151.581 481.825 150.976 481.786 150.35 481.617L150.758 481.279C151.535 481.489 152.168 481.791 152.658 482.185C153.163 482.57 153.507 483.042 153.692 483.602C153.879 484.15 153.879 484.771 153.691 485.466C153.412 486.497 152.813 487.193 151.895 487.554C150.989 487.918 149.771 487.893 148.242 487.479L142.647 485.966ZM144.22 485.254L148.511 486.415C149.577 486.703 150.442 486.744 151.107 486.539C151.775 486.322 152.217 485.814 152.433 485.014C152.646 484.227 152.518 483.577 152.047 483.064C151.58 482.54 150.813 482.133 149.748 481.845L145.317 480.646L145.604 479.586L149.617 480.672C150.59 480.936 151.394 480.954 152.027 480.727C152.671 480.504 153.092 480.027 153.29 479.298C153.49 478.556 153.367 477.933 152.92 477.426C152.487 476.911 151.784 476.522 150.811 476.259L146.937 475.211L144.22 485.254ZM155.486 489.439L157.954 480.317L159.135 480.637L158.463 483.121L158.459 482.654C158.902 482.028 159.473 481.617 160.173 481.421C160.875 481.213 161.672 481.23 162.564 481.471L162.24 482.67C162.194 482.658 162.147 482.645 162.101 482.632C162.058 482.608 162.013 482.59 161.967 482.578C161.005 482.317 160.172 482.409 159.468 482.853C158.767 483.284 158.271 484.039 157.979 485.116L156.72 489.773L155.486 489.439ZM166.09 492.401C165.141 492.144 164.36 491.722 163.748 491.134C163.14 490.534 162.727 489.832 162.509 489.027C162.295 488.211 162.31 487.351 162.555 486.447C162.799 485.544 163.206 484.796 163.777 484.205C164.359 483.616 165.039 483.216 165.817 483.004C166.61 482.783 167.43 482.787 168.275 483.016C169.132 483.248 169.838 483.65 170.392 484.223C170.96 484.787 171.34 485.474 171.531 486.284C171.725 487.082 171.698 487.939 171.451 488.854C171.435 488.912 171.412 488.974 171.382 489.041C171.366 489.098 171.349 489.162 171.33 489.232L163.389 487.083L163.639 486.163L170.919 488.132L170.334 488.365C170.512 487.705 170.526 487.081 170.374 486.493C170.237 485.896 169.965 485.388 169.556 484.966C169.148 484.545 168.626 484.248 167.988 484.076C167.363 483.907 166.762 483.9 166.186 484.055C165.609 484.209 165.111 484.51 164.692 484.956C164.273 485.402 163.973 485.961 163.791 486.633L163.739 486.824C163.551 487.519 163.536 488.173 163.693 488.788C163.865 489.394 164.182 489.921 164.645 490.369C165.123 490.809 165.715 491.125 166.421 491.316C166.977 491.467 167.519 491.507 168.048 491.439C168.587 491.374 169.086 491.185 169.543 490.874L170.022 491.861C169.485 492.238 168.875 492.471 168.192 492.56C167.521 492.652 166.82 492.599 166.09 492.401ZM178.188 495.581L178.733 493.565L178.77 493.221L179.682 489.85C179.892 489.074 179.833 488.418 179.506 487.882C179.19 487.349 178.604 486.967 177.746 486.735C177.156 486.575 176.567 486.521 175.981 486.574C175.395 486.627 174.873 486.765 174.414 486.989L174.107 485.918C174.677 485.649 175.315 485.499 176.02 485.466C176.728 485.421 177.441 485.496 178.159 485.69C179.341 486.01 180.17 486.551 180.648 487.314C181.14 488.069 181.224 489.043 180.901 490.236L179.369 495.9L178.188 495.581ZM175.019 494.817C174.336 494.632 173.769 494.361 173.319 494.003C172.883 493.636 172.586 493.22 172.426 492.754C172.269 492.277 172.261 491.777 172.402 491.256C172.531 490.781 172.757 490.382 173.08 490.059C173.418 489.728 173.874 489.516 174.446 489.422C175.033 489.32 175.761 489.386 176.63 489.621L179.775 490.472L179.526 491.393L176.415 490.552C175.535 490.313 174.879 490.304 174.447 490.522C174.026 490.744 173.753 491.087 173.628 491.55C173.487 492.071 173.577 492.543 173.898 492.966C174.218 493.388 174.744 493.698 175.473 493.896C176.168 494.084 176.807 494.089 177.39 493.911C177.987 493.724 178.483 493.361 178.878 492.821L178.926 493.748C178.531 494.288 177.996 494.659 177.319 494.861C176.655 495.067 175.888 495.052 175.019 494.817ZM184.332 494.707L184.795 493.135L191.877 489.495L193.389 489.904L188.336 492.658L187.481 493.06L184.332 494.707ZM182.72 496.807L186.208 483.914L187.441 484.248L183.953 497.141L182.72 496.807ZM189.792 498.72L187.27 492.947L188.327 492.208L191.303 499.129L189.792 498.72ZM193.364 499.687L196.142 489.418C196.361 488.607 196.776 488.017 197.385 487.647C197.995 487.277 198.746 487.213 199.638 487.455C199.985 487.549 200.309 487.686 200.608 487.866C200.907 488.047 201.14 488.265 201.307 488.522L200.641 489.33C200.508 489.132 200.335 488.967 200.122 488.835C199.912 488.691 199.674 488.583 199.408 488.511C198.887 488.37 198.448 488.407 198.091 488.621C197.735 488.836 197.48 489.227 197.327 489.794L196.951 491.184L196.83 491.767L194.597 500.02L193.364 499.687ZM193.921 491.148L194.198 490.123L199.845 491.65L199.568 492.676L193.921 491.148ZM204.59 502.724L205.135 500.708L205.172 500.364L206.084 496.993C206.294 496.217 206.236 495.561 205.908 495.025C205.592 494.492 205.006 494.109 204.149 493.878C203.558 493.718 202.97 493.664 202.383 493.717C201.797 493.77 201.275 493.908 200.817 494.132L200.51 493.061C201.08 492.792 201.717 492.642 202.422 492.609C203.13 492.564 203.844 492.639 204.562 492.833C205.743 493.153 206.573 493.694 207.05 494.457C207.542 495.212 207.627 496.186 207.304 497.379L205.771 503.043L204.59 502.724ZM201.421 501.96C200.738 501.775 200.171 501.503 199.721 501.145C199.286 500.779 198.988 500.363 198.828 499.897C198.671 499.419 198.664 498.92 198.805 498.399C198.933 497.924 199.159 497.525 199.483 497.202C199.821 496.871 200.276 496.659 200.848 496.565C201.436 496.463 202.163 496.529 203.032 496.764L206.177 497.615L205.928 498.536L202.818 497.694C201.937 497.456 201.281 497.447 200.849 497.665C200.429 497.887 200.156 498.23 200.03 498.693C199.889 499.214 199.979 499.686 200.3 500.109C200.621 500.531 201.146 500.841 201.876 501.038C202.571 501.226 203.21 501.231 203.792 501.053C204.39 500.867 204.886 500.504 205.281 499.964L205.328 500.891C204.934 501.431 204.398 501.802 203.722 502.004C203.057 502.21 202.29 502.195 201.421 501.96ZM211.549 504.7C210.796 504.496 210.111 504.199 209.496 503.809C208.884 503.407 208.43 502.992 208.136 502.564L208.955 501.742C209.251 502.12 209.66 502.492 210.182 502.857C210.708 503.21 211.29 503.473 211.927 503.646C212.796 503.881 213.457 503.917 213.912 503.754C214.369 503.579 214.659 503.266 214.781 502.814C214.872 502.478 214.832 502.188 214.663 501.943C214.507 501.69 214.268 501.47 213.946 501.283C213.627 501.085 213.262 500.893 212.852 500.707C212.443 500.522 212.036 500.325 211.632 500.116C211.24 499.911 210.894 499.674 210.594 499.407C210.296 499.127 210.08 498.801 209.944 498.429C209.821 498.06 209.829 497.615 209.97 497.093C210.105 496.595 210.365 496.187 210.749 495.868C211.134 495.55 211.622 495.352 212.215 495.276C212.822 495.192 213.513 495.255 214.289 495.465C214.88 495.625 215.449 495.866 215.996 496.188C216.546 496.498 216.978 496.832 217.291 497.191L216.484 498.035C216.154 497.648 215.773 497.333 215.341 497.092C214.912 496.839 214.466 496.65 214.003 496.525C213.18 496.302 212.533 496.283 212.061 496.466C211.603 496.64 211.315 496.948 211.196 497.388C211.102 497.735 211.132 498.036 211.288 498.289C211.454 498.545 211.696 498.779 212.012 498.988C212.343 499.19 212.708 499.382 213.106 499.564C213.516 499.749 213.915 499.951 214.304 500.168C214.707 500.376 215.059 500.615 215.36 500.882C215.675 501.142 215.894 501.456 216.018 501.825C216.157 502.186 216.159 502.615 216.024 503.113C215.88 503.646 215.604 504.069 215.196 504.381C214.803 504.685 214.293 504.87 213.666 504.937C213.054 504.995 212.348 504.916 211.549 504.7ZM220.467 507.112C219.61 506.88 219.012 506.47 218.674 505.881C218.336 505.293 218.282 504.576 218.51 503.73L220.828 495.164L222.062 495.498L219.763 503.994C219.619 504.527 219.641 504.974 219.829 505.336C220.028 505.701 220.383 505.952 220.893 506.09C221.437 506.237 221.931 506.203 222.375 505.988L222.57 506.991C222.267 507.146 221.928 507.228 221.552 507.238C221.188 507.251 220.826 507.209 220.467 507.112ZM218.372 497.763L218.649 496.738L224.296 498.265L224.019 499.29L218.372 497.763Z" fill="#F0475E"/>
<path d="M158.389 100.706L161.68 88.5432L164.008 89.1731L166.864 99.1574L165.63 98.8236L173.043 91.6175L175.354 92.2427L172.098 104.415L169.457 103.7L171.635 95.5813L172.122 95.713L166.209 101.442L164.94 101.098L162.635 93.1464L163.226 93.3062L161.03 101.42L158.389 100.706ZM175.025 108.973C174.538 108.842 174.078 108.636 173.644 108.357C173.21 108.078 172.878 107.765 172.649 107.417L174.161 105.756C174.32 105.998 174.518 106.207 174.756 106.383C175.006 106.563 175.264 106.688 175.53 106.761C175.913 106.864 176.239 106.853 176.509 106.727C176.788 106.616 177.076 106.377 177.374 106.01L178.171 104.995L178.46 104.756L183.994 97.601L186.6 98.3061L179.694 107.085C179.189 107.757 178.682 108.253 178.172 108.575C177.674 108.901 177.164 109.086 176.642 109.131C176.132 109.179 175.593 109.127 175.025 108.973ZM177.474 106.261L175.932 95.4198L178.729 96.1766L179.846 104.87L177.474 106.261ZM190.289 109.336L193.58 97.1735L198.845 98.5978C199.933 98.8924 200.823 99.3257 201.514 99.8979C202.207 100.459 202.679 101.127 202.929 101.903C203.179 102.679 203.18 103.525 202.933 104.44C202.688 105.344 202.262 106.068 201.655 106.612C201.051 107.145 200.308 107.478 199.427 107.613C198.545 107.747 197.56 107.667 196.471 107.372L192.77 106.371L194.355 105.476L193.104 110.098L190.289 109.336ZM198.021 111.428L196.175 106.192L199.181 107.005L201.062 112.251L198.021 111.428ZM194.27 105.789L193.376 104.13L196.921 105.089C197.79 105.324 198.488 105.314 199.017 105.059C199.549 104.793 199.905 104.329 200.083 103.669C200.265 102.997 200.192 102.418 199.863 101.932C199.535 101.445 198.937 101.084 198.068 100.849L194.523 99.8901L196.136 98.8906L194.27 105.789ZM207.477 114.135C206.411 113.847 205.529 113.385 204.831 112.748C204.145 112.115 203.679 111.38 203.433 110.542C203.19 109.694 203.194 108.806 203.445 107.879C203.699 106.941 204.137 106.171 204.76 105.568C205.397 104.958 206.148 104.552 207.01 104.35C207.876 104.137 208.784 104.158 209.734 104.415C210.649 104.663 211.418 105.082 212.041 105.674C212.679 106.256 213.114 106.971 213.345 107.816C213.579 108.651 213.56 109.571 213.287 110.579C213.259 110.683 213.22 110.804 213.171 110.939C213.125 111.064 213.081 111.182 213.038 111.295L205.445 109.241L205.872 107.66L212.041 109.328L210.871 109.515C211.003 109.029 211.019 108.579 210.919 108.167C210.819 107.755 210.622 107.403 210.328 107.112C210.037 106.81 209.66 106.596 209.196 106.47C208.733 106.345 208.293 106.338 207.878 106.449C207.477 106.552 207.128 106.762 206.831 107.08C206.537 107.386 206.323 107.788 206.188 108.286L206.075 108.703C205.937 109.212 205.925 109.694 206.038 110.147C206.167 110.592 206.405 110.974 206.754 111.292C207.118 111.602 207.578 111.832 208.134 111.982C208.632 112.117 209.087 112.159 209.498 112.109C209.921 112.062 210.33 111.93 210.724 111.713L211.743 113.667C211.183 114.038 210.542 114.268 209.822 114.359C209.104 114.439 208.322 114.364 207.477 114.135ZM218.317 117.068C217.309 116.795 216.466 116.35 215.788 115.731C215.113 115.101 214.649 114.36 214.394 113.508C214.151 112.659 214.155 111.771 214.406 110.845C214.66 109.906 215.104 109.138 215.739 108.539C216.388 107.931 217.161 107.531 218.058 107.339C218.959 107.135 219.913 107.169 220.921 107.442C221.905 107.708 222.706 108.149 223.323 108.763C223.943 109.366 224.324 110.097 224.464 110.955L222.056 111.516C221.932 111.01 221.713 110.602 221.399 110.294C221.096 109.988 220.73 109.777 220.302 109.661C219.838 109.536 219.393 109.527 218.966 109.636C218.539 109.744 218.164 109.959 217.84 110.282C217.528 110.608 217.299 111.043 217.151 111.587C217.004 112.132 216.983 112.623 217.088 113.062C217.205 113.504 217.42 113.879 217.735 114.188C218.049 114.497 218.438 114.714 218.901 114.839C219.33 114.955 219.75 114.963 220.162 114.863C220.589 114.755 220.986 114.508 221.351 114.122L223.143 115.838C222.592 116.497 221.895 116.936 221.053 117.155C220.213 117.363 219.301 117.334 218.317 117.068ZM224.051 118.47L226.58 109.122L229.291 109.856L226.762 119.204L224.051 118.47ZM228.288 108.186C227.79 108.051 227.424 107.797 227.19 107.422C226.955 107.048 226.896 106.647 227.012 106.218C227.128 105.79 227.381 105.473 227.772 105.268C228.164 105.063 228.608 105.028 229.106 105.162C229.604 105.297 229.972 105.546 230.21 105.908C230.45 106.26 230.513 106.649 230.397 107.078C230.275 107.53 230.016 107.864 229.622 108.08C229.243 108.289 228.798 108.324 228.288 108.186ZM234.765 121.518C233.978 121.305 233.336 120.945 232.839 120.437C232.342 119.93 232.021 119.278 231.877 118.48C231.746 117.674 231.829 116.727 232.123 115.638C232.421 114.537 232.822 113.676 233.326 113.054C233.83 112.432 234.424 112.027 235.109 111.84C235.794 111.652 236.547 111.669 237.37 111.892C238.25 112.13 238.983 112.546 239.568 113.139C240.168 113.724 240.574 114.431 240.785 115.259C241.008 116.09 240.987 116.992 240.724 117.965C240.458 118.949 240.019 119.744 239.408 120.35C238.808 120.958 238.101 121.364 237.288 121.566C236.487 121.772 235.646 121.756 234.765 121.518ZM228.366 123.255L231.807 110.536L234.396 111.237L233.879 113.148L233.074 115.914L232.501 118.723L231.076 123.988L228.366 123.255ZM234.898 119.167C235.35 119.289 235.778 119.293 236.181 119.179C236.597 119.067 236.961 118.849 237.273 118.523C237.599 118.188 237.835 117.755 237.979 117.222C238.126 116.678 238.141 116.184 238.025 115.743C237.92 115.304 237.716 114.932 237.413 114.626C237.122 114.324 236.751 114.111 236.299 113.989C235.847 113.867 235.413 113.861 234.998 113.973C234.582 114.084 234.219 114.303 233.907 114.629C233.595 114.954 233.365 115.39 233.218 115.934C233.074 116.467 233.053 116.958 233.155 117.409C233.26 117.847 233.464 118.219 233.766 118.525C234.069 118.831 234.446 119.045 234.898 119.167ZM245.876 124.524C244.81 124.235 243.928 123.773 243.23 123.137C242.544 122.503 242.078 121.768 241.832 120.931C241.589 120.082 241.593 119.194 241.844 118.268C242.097 117.329 242.536 116.559 243.159 115.957C243.796 115.346 244.546 114.94 245.409 114.738C246.275 114.525 247.183 114.547 248.132 114.804C249.048 115.051 249.817 115.471 250.44 116.062C251.078 116.645 251.512 117.359 251.744 118.205C251.978 119.039 251.959 119.96 251.686 120.968C251.658 121.072 251.619 121.192 251.57 121.328C251.524 121.452 251.479 121.571 251.436 121.683L243.843 119.629L244.271 118.048L250.439 119.717L249.27 119.904C249.402 119.417 249.418 118.968 249.318 118.555C249.218 118.143 249.021 117.791 248.727 117.501C248.436 117.198 248.058 116.984 247.595 116.859C247.132 116.733 246.692 116.726 246.277 116.838C245.876 116.941 245.527 117.151 245.23 117.468C244.936 117.774 244.721 118.176 244.587 118.674L244.474 119.091C244.336 119.601 244.324 120.082 244.437 120.536C244.566 120.981 244.804 121.362 245.153 121.68C245.517 121.99 245.977 122.22 246.533 122.371C247.031 122.505 247.486 122.548 247.897 122.497C248.32 122.45 248.729 122.318 249.123 122.102L250.142 124.056C249.582 124.426 248.941 124.657 248.221 124.748C247.503 124.827 246.721 124.752 245.876 124.524ZM255.343 127.085C254.544 126.869 253.798 126.568 253.107 126.182C252.431 125.787 251.917 125.387 251.567 124.982L252.997 123.28C253.354 123.663 253.798 124.019 254.33 124.35C254.877 124.671 255.434 124.909 256.002 125.063C256.627 125.232 257.088 125.276 257.383 125.194C257.691 125.116 257.88 124.943 257.952 124.677C258.012 124.457 257.951 124.266 257.771 124.106C257.606 123.937 257.363 123.778 257.042 123.629C256.722 123.48 256.367 123.322 255.977 123.154C255.599 122.99 255.22 122.806 254.84 122.604C254.462 122.39 254.132 122.139 253.85 121.851C253.567 121.564 253.367 121.224 253.249 120.831C253.143 120.442 253.162 119.981 253.307 119.448C253.466 118.857 253.775 118.382 254.234 118.021C254.703 117.663 255.297 117.444 256.015 117.365C256.735 117.274 257.547 117.351 258.451 117.595C259.088 117.768 259.718 118.013 260.341 118.33C260.963 118.648 261.459 118.999 261.827 119.385L260.401 121.069C260.022 120.681 259.613 120.377 259.174 120.159C258.751 119.933 258.325 119.762 257.896 119.646C257.294 119.483 256.832 119.445 256.51 119.532C256.188 119.619 255.993 119.789 255.924 120.044C255.861 120.276 255.912 120.476 256.078 120.645C256.255 120.818 256.502 120.984 256.819 121.144C257.137 121.305 257.484 121.467 257.862 121.632C258.255 121.788 258.64 121.973 259.018 122.187C259.395 122.401 259.719 122.65 259.99 122.934C260.276 123.211 260.478 123.545 260.595 123.937C260.716 124.318 260.704 124.775 260.56 125.308C260.403 125.887 260.09 126.355 259.62 126.713C259.154 127.059 258.556 127.27 257.827 127.347C257.109 127.426 256.281 127.339 255.343 127.085Z" fill="#F0475E"/>
</g>
<defs>
<clipPath id="clip0_2_435">
<rect width="396" height="592" fill="white"/>
</clipPath>
<clipPath id="clip1_2_435">
<rect width="114.536" height="115.288" fill="white" transform="translate(129.199 345.014) rotate(15.1384)"/>
</clipPath>
</defs>
</svg>
