<svg width="562" height="526" viewBox="0 0 562 526" fill="none" xmlns="http://www.w3.org/2000/svg">
<g clip-path="url(#clip0_2_435)">
<path d="M562 124.997H558.97V45.8236C558.97 39.8059 557.727 33.8472 555.312 28.2876C552.898 22.7281 549.359 17.6765 544.897 13.4214C540.436 9.16626 535.139 5.79092 529.31 3.48807C523.481 1.18523 517.233 -1.80332e-05 510.923 2.05787e-10H335.046C328.737 -1.32876e-05 322.489 1.18524 316.66 3.48809C310.831 5.79094 305.534 9.16627 301.072 13.4214C296.611 17.6765 293.072 22.7281 290.657 28.2877C288.243 33.8472 287 39.806 287 45.8236V480.176C287 486.194 288.243 492.153 290.657 497.712C293.072 503.272 296.611 508.323 301.072 512.579C305.534 516.834 310.831 520.209 316.66 522.512C322.489 524.815 328.737 526 335.046 526H510.923C517.233 526 523.48 524.815 529.31 522.512C535.139 520.209 540.436 516.834 544.897 512.579C549.359 508.324 552.898 503.272 555.312 497.712C557.727 492.153 558.97 486.194 558.97 480.176V181.354H562V124.997Z" fill="#3F3D56"/>
<path d="M513.045 15H490.04C491.098 17.4482 491.502 20.1044 491.216 22.7347C490.93 25.3649 489.963 27.8884 488.401 30.0829C486.838 32.2774 484.728 34.0756 482.256 35.319C479.783 36.5623 477.025 37.2128 474.224 37.213H373.258C370.456 37.2128 367.698 36.5623 365.226 35.319C362.754 34.0756 360.644 32.2775 359.081 30.083C357.519 27.8884 356.552 25.3649 356.266 22.7347C355.98 20.1044 356.384 17.4482 357.442 15H335.955C331.233 15 326.558 15.8778 322.196 17.5833C317.833 19.2888 313.87 21.7886 310.531 24.94C307.192 28.0913 304.544 31.8325 302.737 35.95C300.93 40.0674 300 44.4805 300 48.9372V479.063C300 483.519 300.93 487.933 302.737 492.05C304.544 496.167 307.192 499.909 310.531 503.06C313.87 506.211 317.833 508.711 322.196 510.417C326.558 512.122 331.233 513 335.955 513H513.045C517.767 513 522.442 512.122 526.804 510.417C531.167 508.711 535.13 506.211 538.469 503.06C541.808 499.909 544.456 496.167 546.263 492.05C548.07 487.933 549 483.519 549 479.063V48.9372C549 39.9365 545.212 31.3044 538.469 24.94C531.726 18.5755 522.581 15 513.045 15Z" fill="#FEFFFF"/>
<path d="M515.788 71.843H329.193V231.881H515.788V71.843Z" fill="#E6E6E6"/>
<path d="M517.644 282.876H331.049V442.914H517.644V282.876Z" fill="#E6E6E6"/>
<g clip-path="url(#clip1_2_435)">
<path d="M424.389 420.386C456.05 420.386 481.717 394.657 481.717 362.919C481.717 331.181 456.05 305.453 424.389 305.453C392.727 305.453 367.061 331.181 367.061 362.919C367.061 394.657 392.727 420.386 424.389 420.386Z" fill="#4A2662"/>
<path opacity="0.2" d="M424.389 404.864C414.708 404.864 405.326 401.499 397.843 395.343C390.36 389.187 385.238 380.62 383.349 371.102C381.46 361.585 382.922 351.705 387.486 343.147C392.049 334.588 399.432 327.881 408.376 324.167C417.32 320.454 427.272 319.964 436.536 322.781C445.799 325.598 453.802 331.547 459.181 339.616C464.559 347.685 466.98 357.373 466.031 367.031C465.082 376.688 460.822 385.717 453.977 392.579C450.1 396.486 445.489 399.584 440.41 401.692C435.331 403.801 429.886 404.879 424.389 404.864ZM424.389 323.561C402.739 323.561 385.125 341.217 385.125 362.919C385.125 384.621 402.739 402.277 424.389 402.277C446.038 402.277 463.652 384.621 463.652 362.919C463.652 341.217 446.038 323.561 424.389 323.561Z" fill="black"/>
<path d="M424.39 403.571C446.787 403.571 464.943 385.37 464.943 362.919C464.943 340.468 446.787 322.268 424.39 322.268C401.992 322.268 383.836 340.468 383.836 362.919C383.836 385.37 401.992 403.571 424.39 403.571Z" fill="#3F3D56"/>
<path d="M394.231 346.664C393.923 346.061 393.738 345.402 393.684 344.726C393.631 344.05 393.711 343.37 393.919 342.726C394.128 342.081 394.462 341.483 394.901 340.968C395.34 340.452 395.876 340.029 396.479 339.721C397.082 339.413 397.739 339.228 398.413 339.175C399.088 339.122 399.766 339.203 400.409 339.413C401.052 339.623 401.647 339.958 402.161 340.399C402.675 340.84 403.097 341.378 403.404 341.982L414.861 364.535C415.169 365.139 415.354 365.798 415.408 366.474C415.461 367.149 415.381 367.829 415.172 368.474C414.964 369.119 414.63 369.716 414.191 370.232C413.752 370.747 413.215 371.171 412.613 371.479C412.01 371.786 411.353 371.972 410.678 372.025C410.004 372.078 409.326 371.997 408.683 371.787C408.04 371.577 407.444 371.242 406.931 370.801C406.417 370.36 405.995 369.822 405.688 369.218L394.231 346.664Z" fill="#FF6584"/>
<path opacity="0.2" d="M395.507 349.18L394.979 348.139C397.618 346.083 400.717 344.572 404.151 343.457L404.68 344.497C400.963 345.273 397.8 346.709 395.507 349.18Z" fill="black"/>
<path opacity="0.2" d="M397.976 354.038L397.447 352.997C400.086 350.941 403.185 349.429 406.62 348.314L407.149 349.355C403.432 350.131 400.269 351.567 397.976 354.038Z" fill="black"/>
<path opacity="0.2" d="M400.443 358.895L399.914 357.854C402.553 355.799 405.652 354.287 409.087 353.172L409.616 354.213C405.898 354.989 402.736 356.425 400.443 358.895Z" fill="black"/>
<path opacity="0.2" d="M402.912 363.753L402.383 362.712C405.022 360.656 408.121 359.145 411.555 358.03L412.084 359.07C408.367 359.846 405.205 361.282 402.912 363.753Z" fill="black"/>
<path opacity="0.2" d="M405.378 368.611L404.85 367.57C407.489 365.514 410.588 364.002 414.022 362.887L414.551 363.928C410.834 364.704 407.671 366.14 405.378 368.611Z" fill="black"/>
<path d="M385.635 355.108C385.327 354.504 385.142 353.845 385.088 353.169C385.035 352.493 385.115 351.814 385.324 351.169C385.533 350.524 385.866 349.927 386.305 349.411C386.745 348.896 387.281 348.472 387.883 348.165C388.486 347.857 389.143 347.671 389.818 347.619C390.492 347.566 391.17 347.646 391.813 347.856C392.456 348.066 393.051 348.401 393.565 348.842C394.079 349.283 394.501 349.821 394.808 350.425L406.265 372.978C406.883 374.198 406.992 375.613 406.57 376.913C406.147 378.213 405.227 379.292 404.012 379.912C402.796 380.533 401.385 380.644 400.087 380.222C398.79 379.8 397.713 378.879 397.092 377.661L385.635 355.108Z" fill="#FF6584"/>
<path opacity="0.2" d="M386.912 357.623L386.383 356.582C389.022 354.527 392.121 353.015 395.555 351.9L396.084 352.941C392.367 353.717 389.205 355.152 386.912 357.623Z" fill="black"/>
<path opacity="0.2" d="M389.38 362.481L388.852 361.44C391.491 359.384 394.59 357.872 398.024 356.757L398.553 357.798C394.836 358.574 391.673 360.01 389.38 362.481Z" fill="black"/>
<path opacity="0.2" d="M391.847 367.338L391.318 366.297C393.957 364.242 397.057 362.73 400.491 361.615L401.02 362.656C397.303 363.432 394.14 364.868 391.847 367.338Z" fill="black"/>
<path opacity="0.2" d="M394.316 372.196L393.787 371.155C396.426 369.1 399.525 367.588 402.96 366.473L403.489 367.514C399.771 368.29 396.609 369.725 394.316 372.196Z" fill="black"/>
<path opacity="0.2" d="M396.783 377.053L396.254 376.012C398.893 373.957 401.992 372.445 405.427 371.33L405.955 372.371C402.238 373.147 399.076 374.583 396.783 377.053Z" fill="black"/>
<path d="M451.486 364.213L451.522 364.213C452.757 364.223 453.965 363.86 454.99 363.172C456.016 362.483 456.81 361.501 457.27 360.353C458.217 357.956 458.694 355.398 458.675 352.819C458.611 341.906 449.753 332.953 438.867 332.802C434.231 332.737 429.715 334.281 426.085 337.172C422.455 340.064 419.933 344.124 418.949 348.666C417.964 353.208 418.576 357.951 420.682 362.092C422.788 366.233 426.257 369.517 430.502 371.387C431.624 371.885 432.869 372.031 434.076 371.807C435.282 371.583 436.392 370.998 437.262 370.13C439.126 368.252 441.342 366.762 443.784 365.746C446.225 364.73 448.843 364.209 451.486 364.213Z" fill="#E6E6E6"/>
<path d="M441.163 358.115C444.828 358.115 447.799 355.137 447.799 351.463C447.799 347.789 444.828 344.811 441.163 344.811C437.498 344.811 434.527 347.789 434.527 351.463C434.527 355.137 437.498 358.115 441.163 358.115Z" fill="#F9A825"/>
<path d="M426.741 350.715C427.172 350.715 427.523 350.364 427.523 349.931C427.523 349.498 427.172 349.147 426.741 349.147C426.309 349.147 425.959 349.498 425.959 349.931C425.959 350.364 426.309 350.715 426.741 350.715Z" fill="#3F3D56"/>
<path d="M400.934 351.454C401.366 351.454 401.716 351.103 401.716 350.67C401.716 350.238 401.366 349.887 400.934 349.887C400.502 349.887 400.152 350.238 400.152 350.67C400.152 351.103 400.502 351.454 400.934 351.454Z" fill="#3F3D56"/>
<path d="M430.907 342.593C431.339 342.593 431.689 342.243 431.689 341.81C431.689 341.377 431.339 341.026 430.907 341.026C430.475 341.026 430.125 341.377 430.125 341.81C430.125 342.243 430.475 342.593 430.907 342.593Z" fill="#3F3D56"/>
<path d="M430.885 365.181C431.317 365.181 431.667 364.83 431.667 364.397C431.667 363.965 431.317 363.614 430.885 363.614C430.454 363.614 430.104 363.965 430.104 364.397C430.104 364.83 430.454 365.181 430.885 365.181Z" fill="#3F3D56"/>
<path d="M446.37 340.975C446.801 340.975 447.151 340.624 447.151 340.191C447.151 339.759 446.801 339.408 446.37 339.408C445.938 339.408 445.588 339.759 445.588 340.191C445.588 340.624 445.938 340.975 446.37 340.975Z" fill="#3F3D56"/>
<path d="M395.862 362.409C396.294 362.409 396.644 362.058 396.644 361.626C396.644 361.193 396.294 360.842 395.862 360.842C395.43 360.842 395.08 361.193 395.08 361.626C395.08 362.058 395.43 362.409 395.862 362.409Z" fill="#3F3D56"/>
<path d="M401.577 373.681C402.008 373.681 402.358 373.33 402.358 372.897C402.358 372.465 402.008 372.114 401.577 372.114C401.145 372.114 400.795 372.465 400.795 372.897C400.795 373.33 401.145 373.681 401.577 373.681Z" fill="#3F3D56"/>
<path d="M437.477 377.332C439.106 377.332 440.426 376.008 440.426 374.376C440.426 372.743 439.106 371.419 437.477 371.419C435.848 371.419 434.527 372.743 434.527 374.376C434.527 376.008 435.848 377.332 437.477 377.332Z" fill="#FF6584"/>
<path opacity="0.2" d="M439.69 374.561C439.69 375.149 439.457 375.713 439.042 376.128C438.627 376.544 438.064 376.778 437.478 376.778C436.891 376.778 436.328 376.544 435.914 376.128C435.499 375.713 435.266 375.149 435.266 374.561" fill="black"/>
<path opacity="0.2" d="M435.266 374.191C435.266 373.603 435.499 373.039 435.914 372.623C436.328 372.207 436.891 371.973 437.478 371.973C438.064 371.973 438.627 372.207 439.042 372.623C439.457 373.039 439.69 373.603 439.69 374.191" fill="black"/>
<path d="M436.37 373.636C436.472 373.636 436.554 373.512 436.554 373.359C436.554 373.206 436.472 373.082 436.37 373.082C436.268 373.082 436.186 373.206 436.186 373.359C436.186 373.512 436.268 373.636 436.37 373.636Z" fill="#FF6584"/>
<path d="M437.477 373.267C437.579 373.267 437.662 373.143 437.662 372.99C437.662 372.837 437.579 372.713 437.477 372.713C437.375 372.713 437.293 372.837 437.293 372.99C437.293 373.143 437.375 373.267 437.477 373.267Z" fill="#FF6584"/>
<path d="M437.477 375.669C437.579 375.669 437.662 375.545 437.662 375.392C437.662 375.239 437.579 375.115 437.477 375.115C437.375 375.115 437.293 375.239 437.293 375.392C437.293 375.545 437.375 375.669 437.477 375.669Z" fill="#FF6584"/>
<path d="M438.583 374.191C438.685 374.191 438.767 374.067 438.767 373.914C438.767 373.761 438.685 373.636 438.583 373.636C438.481 373.636 438.398 373.761 438.398 373.914C438.398 374.067 438.481 374.191 438.583 374.191Z" fill="#FF6584"/>
<path d="M438.399 376.223C438.501 376.223 438.584 376.099 438.584 375.946C438.584 375.793 438.501 375.669 438.399 375.669C438.297 375.669 438.215 375.793 438.215 375.946C438.215 376.099 438.297 376.223 438.399 376.223Z" fill="#FF6584"/>
<path d="M436.186 375.299C436.288 375.299 436.371 375.175 436.371 375.022C436.371 374.869 436.288 374.745 436.186 374.745C436.084 374.745 436.002 374.869 436.002 375.022C436.002 375.175 436.084 375.299 436.186 375.299Z" fill="#FF6584"/>
<path d="M443.375 369.387C445.004 369.387 446.325 368.063 446.325 366.43C446.325 364.797 445.004 363.474 443.375 363.474C441.746 363.474 440.426 364.797 440.426 366.43C440.426 368.063 441.746 369.387 443.375 369.387Z" fill="#FF6584"/>
<path opacity="0.2" d="M445.588 366.615C445.588 367.203 445.355 367.767 444.94 368.183C444.525 368.598 443.963 368.832 443.376 368.832C442.789 368.832 442.227 368.598 441.812 368.183C441.397 367.767 441.164 367.203 441.164 366.615" fill="black"/>
<path opacity="0.2" d="M441.164 366.245C441.164 365.657 441.397 365.093 441.812 364.677C442.227 364.261 442.789 364.028 443.376 364.028C443.963 364.028 444.525 364.261 444.94 364.677C445.355 365.093 445.588 365.657 445.588 366.245" fill="black"/>
<path d="M442.27 365.691C442.372 365.691 442.455 365.567 442.455 365.414C442.455 365.261 442.372 365.137 442.27 365.137C442.168 365.137 442.086 365.261 442.086 365.414C442.086 365.567 442.168 365.691 442.27 365.691Z" fill="#FF6584"/>
<path d="M443.376 365.321C443.478 365.321 443.56 365.197 443.56 365.044C443.56 364.891 443.478 364.767 443.376 364.767C443.274 364.767 443.191 364.891 443.191 365.044C443.191 365.197 443.274 365.321 443.376 365.321Z" fill="#FF6584"/>
<path d="M443.376 367.724C443.478 367.724 443.56 367.599 443.56 367.446C443.56 367.293 443.478 367.169 443.376 367.169C443.274 367.169 443.191 367.293 443.191 367.446C443.191 367.599 443.274 367.724 443.376 367.724Z" fill="#FF6584"/>
<path d="M444.481 366.245C444.583 366.245 444.666 366.121 444.666 365.968C444.666 365.815 444.583 365.691 444.481 365.691C444.379 365.691 444.297 365.815 444.297 365.968C444.297 366.121 444.379 366.245 444.481 366.245Z" fill="#FF6584"/>
<path d="M444.298 368.278C444.399 368.278 444.482 368.154 444.482 368.001C444.482 367.848 444.399 367.724 444.298 367.724C444.196 367.724 444.113 367.848 444.113 368.001C444.113 368.154 444.196 368.278 444.298 368.278Z" fill="#FF6584"/>
<path d="M442.085 367.354C442.187 367.354 442.269 367.23 442.269 367.077C442.269 366.924 442.187 366.8 442.085 366.8C441.983 366.8 441.9 366.924 441.9 367.077C441.9 367.23 441.983 367.354 442.085 367.354Z" fill="#FF6584"/>
<path d="M449.274 373.452C450.902 373.452 452.223 372.128 452.223 370.495C452.223 368.862 450.902 367.539 449.274 367.539C447.645 367.539 446.324 368.862 446.324 370.495C446.324 372.128 447.645 373.452 449.274 373.452Z" fill="#8361F4"/>
<path opacity="0.2" d="M451.487 370.68C451.487 371.268 451.253 371.832 450.839 372.248C450.424 372.664 449.861 372.897 449.275 372.897C448.688 372.897 448.125 372.664 447.71 372.248C447.296 371.832 447.062 371.268 447.062 370.68" fill="black"/>
<path opacity="0.2" d="M447.062 370.31C447.062 369.722 447.296 369.158 447.71 368.742C448.125 368.327 448.688 368.093 449.275 368.093C449.861 368.093 450.424 368.327 450.839 368.742C451.253 369.158 451.487 369.722 451.487 370.31" fill="black"/>
<path d="M448.169 369.756C448.271 369.756 448.353 369.632 448.353 369.479C448.353 369.326 448.271 369.202 448.169 369.202C448.067 369.202 447.984 369.326 447.984 369.479C447.984 369.632 448.067 369.756 448.169 369.756Z" fill="#8361F4"/>
<path d="M449.274 369.387C449.376 369.387 449.459 369.263 449.459 369.109C449.459 368.956 449.376 368.832 449.274 368.832C449.172 368.832 449.09 368.956 449.09 369.109C449.09 369.263 449.172 369.387 449.274 369.387Z" fill="#8361F4"/>
<path d="M449.274 371.789C449.376 371.789 449.459 371.665 449.459 371.512C449.459 371.358 449.376 371.234 449.274 371.234C449.172 371.234 449.09 371.358 449.09 371.512C449.09 371.665 449.172 371.789 449.274 371.789Z" fill="#8361F4"/>
<path d="M450.38 370.31C450.481 370.31 450.564 370.186 450.564 370.033C450.564 369.88 450.481 369.756 450.38 369.756C450.278 369.756 450.195 369.88 450.195 370.033C450.195 370.186 450.278 370.31 450.38 370.31Z" fill="#8361F4"/>
<path d="M450.196 372.343C450.298 372.343 450.38 372.219 450.38 372.066C450.38 371.913 450.298 371.789 450.196 371.789C450.094 371.789 450.012 371.913 450.012 372.066C450.012 372.219 450.094 372.343 450.196 372.343Z" fill="#8361F4"/>
<path d="M447.983 371.419C448.085 371.419 448.167 371.295 448.167 371.142C448.167 370.989 448.085 370.865 447.983 370.865C447.881 370.865 447.799 370.989 447.799 371.142C447.799 371.295 447.881 371.419 447.983 371.419Z" fill="#8361F4"/>
<path d="M434.527 373.821C436.156 373.821 437.477 372.498 437.477 370.865C437.477 369.232 436.156 367.908 434.527 367.908C432.899 367.908 431.578 369.232 431.578 370.865C431.578 372.498 432.899 373.821 434.527 373.821Z" fill="#8361F4"/>
<path opacity="0.2" d="M436.74 371.05C436.74 371.638 436.507 372.202 436.093 372.617C435.678 373.033 435.115 373.267 434.528 373.267C433.942 373.267 433.379 373.033 432.964 372.617C432.549 372.202 432.316 371.638 432.316 371.05" fill="black"/>
<path opacity="0.2" d="M432.316 370.68C432.316 370.092 432.549 369.528 432.964 369.112C433.379 368.696 433.942 368.463 434.528 368.463C435.115 368.463 435.678 368.696 436.093 369.112C436.507 369.528 436.74 370.092 436.74 370.68" fill="black"/>
<path d="M433.421 370.126C433.522 370.126 433.605 370.002 433.605 369.848C433.605 369.695 433.522 369.571 433.421 369.571C433.319 369.571 433.236 369.695 433.236 369.848C433.236 370.002 433.319 370.126 433.421 370.126Z" fill="#8361F4"/>
<path d="M434.528 369.756C434.63 369.756 434.712 369.632 434.712 369.479C434.712 369.326 434.63 369.202 434.528 369.202C434.426 369.202 434.344 369.326 434.344 369.479C434.344 369.632 434.426 369.756 434.528 369.756Z" fill="#8361F4"/>
<path d="M434.528 372.158C434.63 372.158 434.712 372.034 434.712 371.881C434.712 371.728 434.63 371.604 434.528 371.604C434.426 371.604 434.344 371.728 434.344 371.881C434.344 372.034 434.426 372.158 434.528 372.158Z" fill="#8361F4"/>
<path d="M435.634 370.68C435.735 370.68 435.818 370.556 435.818 370.403C435.818 370.25 435.735 370.126 435.634 370.126C435.532 370.126 435.449 370.25 435.449 370.403C435.449 370.556 435.532 370.68 435.634 370.68Z" fill="#8361F4"/>
<path d="M435.45 372.713C435.552 372.713 435.634 372.588 435.634 372.435C435.634 372.282 435.552 372.158 435.45 372.158C435.348 372.158 435.266 372.282 435.266 372.435C435.266 372.588 435.348 372.713 435.45 372.713Z" fill="#8361F4"/>
<path d="M433.237 371.789C433.339 371.789 433.421 371.665 433.421 371.512C433.421 371.358 433.339 371.234 433.237 371.234C433.135 371.234 433.053 371.358 433.053 371.512C433.053 371.665 433.135 371.789 433.237 371.789Z" fill="#8361F4"/>
<path d="M441.164 375.115C442.793 375.115 444.114 373.791 444.114 372.158C444.114 370.525 442.793 369.202 441.164 369.202C439.535 369.202 438.215 370.525 438.215 372.158C438.215 373.791 439.535 375.115 441.164 375.115Z" fill="#8361F4"/>
<path opacity="0.2" d="M443.375 372.343C443.375 372.634 443.318 372.923 443.207 373.192C443.096 373.461 442.933 373.705 442.727 373.911C442.522 374.117 442.278 374.28 442.01 374.392C441.741 374.503 441.454 374.56 441.163 374.56C440.873 374.56 440.585 374.503 440.317 374.392C440.048 374.28 439.804 374.117 439.599 373.911C439.394 373.705 439.231 373.461 439.12 373.192C439.008 372.923 438.951 372.634 438.951 372.343" fill="black"/>
<path opacity="0.2" d="M438.951 371.973C438.951 371.682 439.008 371.394 439.12 371.125C439.231 370.856 439.394 370.611 439.599 370.406C439.804 370.2 440.048 370.036 440.317 369.925C440.585 369.813 440.873 369.756 441.163 369.756C441.454 369.756 441.741 369.813 442.01 369.925C442.278 370.036 442.522 370.2 442.727 370.406C442.933 370.611 443.096 370.856 443.207 371.125C443.318 371.394 443.375 371.682 443.375 371.973" fill="black"/>
<path d="M440.057 371.419C440.159 371.419 440.242 371.295 440.242 371.142C440.242 370.989 440.159 370.865 440.057 370.865C439.956 370.865 439.873 370.989 439.873 371.142C439.873 371.295 439.956 371.419 440.057 371.419Z" fill="#8361F4"/>
<path d="M441.163 371.049C441.265 371.049 441.347 370.925 441.347 370.772C441.347 370.619 441.265 370.495 441.163 370.495C441.061 370.495 440.979 370.619 440.979 370.772C440.979 370.925 441.061 371.049 441.163 371.049Z" fill="#8361F4"/>
<path d="M441.163 373.452C441.265 373.452 441.347 373.328 441.347 373.175C441.347 373.022 441.265 372.897 441.163 372.897C441.061 372.897 440.979 373.022 440.979 373.175C440.979 373.328 441.061 373.452 441.163 373.452Z" fill="#8361F4"/>
<path d="M442.27 371.974C442.372 371.974 442.455 371.849 442.455 371.696C442.455 371.543 442.372 371.419 442.27 371.419C442.168 371.419 442.086 371.543 442.086 371.696C442.086 371.849 442.168 371.974 442.27 371.974Z" fill="#8361F4"/>
<path d="M442.085 374.006C442.187 374.006 442.269 373.882 442.269 373.729C442.269 373.576 442.187 373.452 442.085 373.452C441.983 373.452 441.9 373.576 441.9 373.729C441.9 373.882 441.983 374.006 442.085 374.006Z" fill="#8361F4"/>
<path d="M439.874 373.082C439.976 373.082 440.058 372.958 440.058 372.805C440.058 372.652 439.976 372.528 439.874 372.528C439.772 372.528 439.689 372.652 439.689 372.805C439.689 372.958 439.772 373.082 439.874 373.082Z" fill="#8361F4"/>
<path d="M445.772 378.256C447.401 378.256 448.721 376.932 448.721 375.299C448.721 373.667 447.401 372.343 445.772 372.343C444.143 372.343 442.822 373.667 442.822 375.299C442.822 376.932 444.143 378.256 445.772 378.256Z" fill="#FF6584"/>
<path opacity="0.2" d="M447.985 375.484C447.985 376.072 447.752 376.636 447.337 377.052C446.922 377.468 446.359 377.702 445.773 377.702C445.186 377.702 444.623 377.468 444.208 377.052C443.794 376.636 443.561 376.072 443.561 375.484" fill="black"/>
<path opacity="0.2" d="M443.561 375.115C443.561 374.527 443.794 373.963 444.208 373.547C444.623 373.131 445.186 372.897 445.773 372.897C446.359 372.897 446.922 373.131 447.337 373.547C447.752 373.963 447.985 374.527 447.985 375.115" fill="black"/>
<path d="M444.667 374.56C444.769 374.56 444.851 374.436 444.851 374.283C444.851 374.13 444.769 374.006 444.667 374.006C444.565 374.006 444.482 374.13 444.482 374.283C444.482 374.436 444.565 374.56 444.667 374.56Z" fill="#FF6584"/>
<path d="M445.772 374.191C445.874 374.191 445.957 374.067 445.957 373.914C445.957 373.761 445.874 373.636 445.772 373.636C445.67 373.636 445.588 373.761 445.588 373.914C445.588 374.067 445.67 374.191 445.772 374.191Z" fill="#FF6584"/>
<path d="M445.772 376.593C445.874 376.593 445.957 376.469 445.957 376.316C445.957 376.163 445.874 376.039 445.772 376.039C445.67 376.039 445.588 376.163 445.588 376.316C445.588 376.469 445.67 376.593 445.772 376.593Z" fill="#FF6584"/>
<path d="M446.878 375.115C446.979 375.115 447.062 374.991 447.062 374.837C447.062 374.684 446.979 374.56 446.878 374.56C446.776 374.56 446.693 374.684 446.693 374.837C446.693 374.991 446.776 375.115 446.878 375.115Z" fill="#FF6584"/>
<path d="M446.694 377.147C446.796 377.147 446.878 377.023 446.878 376.87C446.878 376.717 446.796 376.593 446.694 376.593C446.592 376.593 446.51 376.717 446.51 376.87C446.51 377.023 446.592 377.147 446.694 377.147Z" fill="#FF6584"/>
<path d="M444.481 376.223C444.583 376.223 444.666 376.099 444.666 375.946C444.666 375.793 444.583 375.669 444.481 375.669C444.379 375.669 444.297 375.793 444.297 375.946C444.297 376.099 444.379 376.223 444.481 376.223Z" fill="#FF6584"/>
<path d="M407.842 364.812C408.274 364.812 408.624 364.461 408.624 364.028C408.624 363.595 408.274 363.244 407.842 363.244C407.411 363.244 407.061 363.595 407.061 364.028C407.061 364.461 407.411 364.812 407.842 364.812Z" fill="#3F3D56"/>
<path d="M429.093 392.472L410.318 387.253L411.038 384.575L429.813 389.795L429.093 392.472Z" fill="#F9A825"/>
<path d="M426.34 391.578C419.911 392.811 413.306 392.811 406.877 391.578V388.802C413.321 389.872 419.897 389.872 426.34 388.802V391.578Z" fill="#F9A825"/>
<path d="M428.342 383.249C421.913 384.483 415.308 384.483 408.879 383.249V380.473C415.323 381.544 421.899 381.544 428.342 380.473V383.249Z" fill="#F9A825"/>
<path d="M435.073 386.581C428.643 387.814 422.039 387.814 415.609 386.581V383.805C422.053 384.875 428.629 384.875 435.073 383.805V386.581Z" fill="#F9A825"/>
<path d="M436.71 389.727C430.28 390.96 423.676 390.96 417.246 389.727V386.951C423.69 388.021 430.266 388.021 436.71 386.951V389.727Z" fill="#F9A825"/>
<path d="M442.417 393.838L423.215 397.071L422.77 394.332L441.972 391.099L442.417 393.838Z" fill="#F9A825"/>
<path d="M439.547 394.194C434.224 398.041 428.224 400.846 421.862 402.462L420.723 399.94C427.029 398.17 433.003 395.377 438.408 391.671L439.547 394.194Z" fill="#F9A825"/>
<path d="M437.948 385.776C432.624 389.623 426.624 392.428 420.262 394.045L419.123 391.522C425.429 389.752 431.403 386.959 436.809 383.254L437.948 385.776Z" fill="#F9A825"/>
<path d="M445.432 385.944C440.108 389.791 434.108 392.596 427.747 394.213L426.607 391.69C432.913 389.92 438.888 387.127 444.293 383.422L445.432 385.944Z" fill="#F9A825"/>
<path d="M448.21 388.107C442.886 391.954 436.886 394.759 430.524 396.376L429.385 393.853C435.691 392.083 441.665 389.29 447.07 385.585L448.21 388.107Z" fill="#F9A825"/>
<path d="M424.941 382.691H424.02V383.615H424.941V382.691Z" fill="#00BF71"/>
<path d="M427.707 398.767H426.785V399.691H427.707V398.767Z" fill="#00BF71"/>
<path d="M412.961 382.691H412.039V383.615H412.961V382.691Z" fill="#00BF71"/>
<path d="M434.344 394.147H433.422V395.071H434.344V394.147Z" fill="#00BF71"/>
<path d="M434.896 388.789H433.975V389.712H434.896V388.789Z" fill="#00BF71"/>
<path d="M419.693 386.259L418.625 385.533L418.211 386.144L419.279 386.871L419.693 386.259Z" fill="#00BF71"/>
<path d="M430.568 388.291L429.5 387.565L429.086 388.177L430.154 388.903L430.568 388.291Z" fill="#00BF71"/>
<path d="M417.296 391.802L416.229 391.076L415.815 391.688L416.882 392.414L417.296 391.802Z" fill="#00BF71"/>
<path d="M424.055 391.749L424.779 390.678L424.169 390.263L423.445 391.334L424.055 391.749Z" fill="#00BF71"/>
<path d="M429.033 393.042L429.758 391.972L429.148 391.557L428.423 392.627L429.033 393.042Z" fill="#00BF71"/>
<path d="M442.307 388.607L443.031 387.537L442.421 387.122L441.697 388.192L442.307 388.607Z" fill="#00BF71"/>
</g>
<path d="M448.773 192.263H392.544C391.033 192.263 382.71 187.932 382.71 182.589V151.865C382.441 128.626 459.786 127.105 460.078 151.865V182.589C460.078 187.932 454.204 192.263 448.773 192.263Z" fill="#E6E6E6"/>
<path d="M452.244 130.46C449.479 129.495 446.543 129.084 443.612 129.253C444.396 129 445.116 128.588 445.726 128.045C445.19 128.024 444.657 127.954 444.135 127.836C443.559 127.73 443.017 127.493 442.553 127.145C442.086 126.786 441.837 126.222 441.89 125.644C441.996 124.938 442.673 124.356 442.603 123.645C442.524 122.831 441.56 122.434 441.044 121.789C440.399 120.79 440.51 119.494 441.316 118.613C441.807 118.056 442.406 117.602 443.08 117.276C441.942 116.99 440.747 117.007 439.618 117.325C440.828 116.411 441.365 114.883 440.986 113.437C440.347 111.637 438.83 110.266 436.942 109.782C435.079 109.324 433.151 109.172 431.237 109.332C432.864 108.845 432.619 106.358 431.375 105.225C430.132 104.091 428.353 103.618 427.18 102.415C426.008 101.211 426.103 98.6427 427.792 98.4428L427.584 97.8565C424.22 96.6306 420.473 98.298 419.217 101.581C419.109 101.861 419.022 102.15 418.957 102.443C418.647 104.324 419.224 106.405 418.256 108.06C417.022 110.171 414.028 110.409 411.549 110.176C409.115 109.567 406.534 109.91 404.357 111.133C402.556 112.596 402.313 115.206 403.812 116.962C404.645 117.937 405.889 118.486 407.189 118.451C405.558 118.462 403.935 118.671 402.357 119.073L403.877 119.648C404.215 119.75 404.527 119.921 404.792 120.149C405.059 120.389 405.141 120.767 404.996 121.091C404.753 121.521 404.125 121.506 403.628 121.433L400.323 120.948C400.981 121.162 401.336 121.855 401.116 122.497C400.897 123.138 400.187 123.484 399.529 123.27C399.361 123.215 399.206 123.126 399.075 123.009C399.415 123.395 399.688 123.833 399.883 124.305C400.078 124.786 400.02 125.329 399.73 125.761C399.058 126.362 398.069 126.479 397.269 126.053C397 125.953 396.73 125.835 396.457 125.728C396.463 125.821 396.47 125.914 396.481 126.008C396.664 127.246 397.371 128.353 398.431 129.058C396.933 129.229 395.553 129.937 394.562 131.046C392.842 133.13 392.738 136.071 394.307 138.265C392.64 137.546 390.813 137.251 388.998 137.407C387.131 137.631 385.733 139.183 385.744 141.018C386.045 143.265 388.897 144.087 391.203 144.365C409.33 146.542 427.663 146.54 445.79 144.359C448.252 144.196 450.664 143.598 452.907 142.593C455.176 141.545 456.737 139.438 457.045 137.008C456.947 134.079 455.053 131.496 452.244 130.46Z" fill="#4A2662"/>
<path d="M463.887 157.654C463.483 155.903 461.923 154.665 460.129 154.673C458.42 154.718 456.892 155.941 455.214 155.673C453.821 155.451 452.726 154.232 451.325 154.419C450.041 154.589 449.351 155.846 448.393 156.522H445.934C444.977 155.767 444.507 154.238 443.18 153.809C441.18 153.163 439.576 155.423 437.482 155.823C436.27 155.958 435.045 155.724 433.968 155.151C432.913 154.577 431.768 154.189 430.583 154.003C429.518 153.843 428.456 154.31 427.853 155.203C427.918 154.564 427.089 153.937 426.246 153.896C425.305 153.931 424.39 154.213 423.592 154.715C422.792 155.217 421.866 155.482 420.922 155.48C418.83 155.298 417.804 152.849 415.701 152.822C413.053 152.789 411.994 156.568 409.375 156.245C408.013 156.078 407.279 154.839 406.065 154.31C404.776 153.913 403.401 153.9 402.105 154.271L395.912 155.432C394.097 155.935 392.182 155.953 390.358 155.487C389.029 155.006 387.739 153.963 386.369 154.36C385.176 154.705 384.594 156.044 383.331 156.114C382.524 156.011 381.746 155.745 381.046 155.33C379.707 154.855 378.214 155.232 377.26 156.287C376.566 159.117 376.454 162.058 376.93 164.932C376.911 165.545 376.959 166.158 377.074 166.76L383.303 191.732C384.035 195.562 385.925 198.331 389.818 198.331H450.357C454.25 198.331 457.594 195.562 458.326 191.732L464.555 166.76C464.567 166.696 464.575 166.631 464.586 166.567C464.733 163.578 464.498 160.583 463.887 157.654Z" fill="#CCCCCC"/>
<path opacity="0.2" d="M391.053 154.602L392.06 170.376C392.395 175.634 391.899 180.819 392.234 186.077C392.423 189.039 393.444 192.073 393.633 195.034C393.655 195.383 394.108 195.386 394.086 195.034L393.08 179.26L392.073 163.486L391.507 154.602C391.485 154.253 391.031 154.25 391.053 154.602Z" fill="black"/>
<path opacity="0.2" d="M400.155 156.114L400.971 171.311L401.787 186.507L402.245 195.039C402.263 195.382 403.207 195.383 403.188 195.039L402.372 179.842L401.556 164.645L401.098 156.114C401.079 155.771 400.136 155.77 400.155 156.114Z" fill="black"/>
<path opacity="0.2" d="M419.117 156.12L419.463 171.339L419.807 186.466L420.002 195.033C420.008 195.184 420.154 195.302 420.329 195.297C420.495 195.292 420.629 195.176 420.634 195.033L420.288 179.814L419.944 164.687L419.749 156.12C419.744 155.969 419.597 155.851 419.422 155.856C419.256 155.861 419.123 155.977 419.117 156.12Z" fill="black"/>
<path opacity="0.2" d="M429.738 156.111L430.286 171.319L430.833 186.527L431.139 195.04C431.147 195.187 431.35 195.302 431.592 195.297C431.821 195.292 432.006 195.18 432.014 195.04L431.467 179.832L430.919 164.624L430.613 156.111C430.603 155.964 430.399 155.85 430.157 155.856C429.93 155.862 429.748 155.973 429.738 156.111Z" fill="black"/>
<path opacity="0.2" d="M439.598 156.12L440.603 171.919L441.605 187.672L442.17 196.55C442.192 196.9 442.653 196.903 442.631 196.55L441.626 180.751L440.624 164.998L440.059 156.12C440.037 155.77 439.576 155.767 439.598 156.12Z" fill="black"/>
<path opacity="0.2" d="M448.79 157.64L450.035 172.237C450.45 177.103 448.341 181.968 448.756 186.834L449.455 195.03C449.485 195.385 450.432 195.387 450.401 195.03C449.986 190.164 452.096 185.299 451.681 180.433L450.436 165.837L449.737 157.64C449.707 157.285 448.76 157.283 448.79 157.64Z" fill="black"/>
<path d="M418.36 117.933C419.616 117.933 420.635 117.253 420.635 116.416C420.635 115.578 419.616 114.899 418.36 114.899C417.103 114.899 416.084 115.578 416.084 116.416C416.084 117.253 417.103 117.933 418.36 117.933Z" fill="#E6E6E6"/>
<path d="M430.876 120.967C432.342 120.967 433.53 120.287 433.53 119.45C433.53 118.612 432.342 117.933 430.876 117.933C429.409 117.933 428.221 118.612 428.221 119.45C428.221 120.287 429.409 120.967 430.876 120.967Z" fill="#3F3D56"/>
<path d="M413.05 129.31C413.888 129.31 414.567 128.631 414.567 127.793C414.567 126.955 413.888 126.276 413.05 126.276C412.212 126.276 411.533 126.955 411.533 127.793C411.533 128.631 412.212 129.31 413.05 129.31Z" fill="#FF6584"/>
<path d="M430.117 130.827C431.164 130.827 432.013 130.487 432.013 130.068C432.013 129.649 431.164 129.31 430.117 129.31C429.07 129.31 428.221 129.649 428.221 130.068C428.221 130.487 429.07 130.827 430.117 130.827Z" fill="#E6E6E6"/>
<path d="M438.841 132.344C439.259 132.344 439.599 132.004 439.599 131.585C439.599 131.166 439.259 130.827 438.841 130.827C438.422 130.827 438.082 131.166 438.082 131.585C438.082 132.004 438.422 132.344 438.841 132.344Z" fill="#3F3D56"/>
<path d="M426.703 136.894C427.54 136.894 428.22 136.555 428.22 136.136C428.22 135.717 427.54 135.377 426.703 135.377C425.865 135.377 425.186 135.717 425.186 136.136C425.186 136.555 425.865 136.894 426.703 136.894Z" fill="#FF6584"/>
<path d="M442.632 135.378C443.47 135.378 444.149 135.038 444.149 134.619C444.149 134.2 443.47 133.861 442.632 133.861C441.794 133.861 441.115 134.2 441.115 134.619C441.115 135.038 441.794 135.378 442.632 135.378Z" fill="#E6E6E6"/>
<path d="M450.218 138.411C451.056 138.411 451.735 137.732 451.735 136.894C451.735 136.057 451.056 135.377 450.218 135.377C449.38 135.377 448.701 136.057 448.701 136.894C448.701 137.732 449.38 138.411 450.218 138.411Z" fill="#3F3D56"/>
<path d="M439.599 141.445C440.437 141.445 441.116 141.106 441.116 140.687C441.116 140.268 440.437 139.928 439.599 139.928C438.761 139.928 438.082 140.268 438.082 140.687C438.082 141.106 438.761 141.445 439.599 141.445Z" fill="#FF6584"/>
<path d="M408.33 130.799C408.43 130.074 408.102 129.43 407.597 129.361C407.093 129.291 406.603 129.823 406.503 130.548C406.403 131.273 406.731 131.917 407.236 131.986C407.74 132.056 408.23 131.524 408.33 130.799Z" fill="#E6E6E6"/>
<path d="M405.129 138.85C405.229 138.125 404.901 137.481 404.396 137.412C403.892 137.342 403.402 137.874 403.302 138.599C403.202 139.324 403.53 139.968 404.034 140.037C404.539 140.107 405.029 139.575 405.129 138.85Z" fill="#3F3D56"/>
<path d="M402.277 126.593C402.377 125.868 402.049 125.224 401.545 125.154C401.04 125.085 400.55 125.616 400.45 126.341C400.351 127.066 400.678 127.71 401.183 127.78C401.687 127.849 402.177 127.318 402.277 126.593Z" fill="#FF6584"/>
<path d="M422.736 126.423C422.836 125.698 422.508 125.054 422.004 124.985C421.499 124.915 421.009 125.447 420.909 126.172C420.81 126.897 421.137 127.541 421.642 127.61C422.146 127.68 422.636 127.149 422.736 126.423Z" fill="#E6E6E6"/>
<path d="M419.531 134.474C419.631 133.749 419.303 133.105 418.799 133.036C418.294 132.966 417.804 133.498 417.704 134.223C417.604 134.948 417.932 135.592 418.437 135.661C418.941 135.731 419.431 135.2 419.531 134.474Z" fill="#3F3D56"/>
<path d="M416.683 122.216C416.783 121.491 416.455 120.847 415.951 120.778C415.446 120.708 414.957 121.24 414.857 121.965C414.757 122.69 415.085 123.334 415.589 123.403C416.093 123.473 416.583 122.941 416.683 122.216Z" fill="#FF6584"/>
<path d="M426.642 117.513C426.742 116.788 426.414 116.144 425.91 116.074C425.405 116.005 424.916 116.536 424.816 117.261C424.716 117.986 425.044 118.631 425.548 118.7C426.053 118.77 426.542 118.238 426.642 117.513Z" fill="#3F3D56"/>
<path d="M423.801 105.26C423.9 104.535 423.572 103.89 423.068 103.821C422.564 103.751 422.074 104.283 421.974 105.008C421.874 105.733 422.202 106.377 422.706 106.447C423.211 106.516 423.701 105.985 423.801 105.26Z" fill="#FF6584"/>
<path d="M210.192 206.241L216.053 191.095L261.698 196.33L277.7 187.202C279.118 183.132 283.558 180.975 287.618 182.383C291.678 183.792 293.82 188.233 292.402 192.303C291.292 195.49 288.263 197.607 284.896 197.549L260.294 209.694L210.192 206.241Z" fill="#A0616A"/>
<path d="M199.588 187.103L221 189.32L215.178 207.899L198.675 208.911L199.588 187.103Z" fill="#3F3D56"/>
<path d="M151.029 504.36H162.399L167.809 460.731H151.027L151.029 504.36Z" fill="#A0616A"/>
<path d="M166.234 505.425V497.648L163.245 497.833L151.078 498.56L148.262 498.734L146.109 524.779L145.994 526.175H154.067L154.326 524.788L155.499 518.486L158.526 524.788L159.189 526.175H180.592C183.242 526.158 185.386 523.992 185.397 521.317C186.301 517.061 168.502 507.859 166.234 505.425Z" fill="#2F2E41"/>
<path d="M15.9375 463.483L25.3434 469.961L55.3737 437.571L41.4915 428.01L15.9375 463.483Z" fill="#A0616A"/>
<path d="M28.7354 472.395L33.2289 466.059L30.649 464.478L20.1601 458.025L17.729 456.536L0.898341 476.51L-0.00390625 477.581L6.67676 482.256L7.69268 481.277L12.3048 476.82L11.1682 483.709L10.9158 485.223L28.6275 497.617C30.8308 499.138 33.8562 498.614 35.4111 496.442C38.6183 493.497 29.2061 475.692 28.7354 472.395Z" fill="#2F2E41"/>
<path d="M168.649 220.067L153.992 213.221L124.762 248.567L106.958 253.067C103.132 251.118 98.4499 252.638 96.5 256.46C94.55 260.283 96.0706 264.961 99.8962 266.91C102.892 268.436 106.53 267.864 108.913 265.493L134.984 257.214L168.649 220.067Z" fill="#A0616A"/>
<path d="M154.307 276.986C154.307 276.986 130.255 292.702 136.615 303.145C136.834 303.505 85.3816 375.183 85.3816 375.183L27.6855 437.599L47.5185 455.691C47.5185 455.691 102.33 398.419 111.525 388.751C120.72 379.084 160.883 330.718 160.883 330.718L162.36 390.49L146.985 473.317L169.942 471.856L192.286 388.76L200.533 294.634L154.307 276.986Z" fill="#2F2E41"/>
<path d="M170.869 183.646L160.695 191.311L149.099 215.915L160.25 230.97C160.25 230.97 169.63 247.13 154.616 262.781C139.601 278.431 128.072 295.146 140.09 294.549C152.107 293.953 200.778 318.562 201.099 298.4C201.419 278.238 202.067 262.781 202.067 262.781L214.828 230.606C214.828 230.606 222.43 211.413 217.092 205.667C211.755 199.922 204.608 192.58 204.608 192.58L191.612 179.66H179.876L170.869 183.646Z" fill="#3F3D56"/>
<path d="M190.072 136.101C213.124 149.106 194.2 183.418 170.718 171.2C147.667 158.196 166.591 123.883 190.072 136.101Z" fill="#A0616A"/>
<path d="M202.21 143.535C200.606 145.592 197.254 144.628 190.69 146.095C190.705 143.902 190.447 141.716 189.925 139.585C189.436 142.224 188.366 144.725 186.789 146.911C181.09 147.534 188.077 164.598 185.158 177.143C181.398 150.676 173.49 157.61 177.485 162.86C180.043 166.221 178.338 176.303 170.664 171.262C158.003 177.191 139.971 147.736 159.957 133.923C159.599 126.456 168.03 125.276 173.222 127.572C185.822 118.323 200.216 130.174 202.21 143.535Z" fill="#2F2E41"/>
<path d="M144.144 123.723C139.077 154.786 111.919 118.01 99.1496 148.579C95.1347 159.65 102.023 167.569 106.381 176.758C107.375 184.309 97.5226 188.141 96.4907 195.092C96.2034 211.028 121.988 210.053 129.197 199.999C136.603 189.473 127.759 175.352 132.21 164.055C138.468 148.37 163.914 148.253 166.131 130.005C161.838 123.909 150.293 116.927 144.144 123.723Z" fill="#2F2E41"/>
<path d="M164.493 127.1C164.328 127.168 164.163 127.236 164.016 127.312H164.007C163.869 127.38 163.73 127.448 163.592 127.524C163.574 127.533 163.566 127.541 163.548 127.55C163.366 127.38 163.184 127.211 162.994 127.041C162.945 127.317 162.956 127.6 163.029 127.872L163.054 127.974C163.228 128.152 163.41 128.321 163.6 128.499C163.774 128.372 163.938 128.236 164.111 128.109C164.215 128.024 164.319 127.94 164.432 127.855C164.449 127.634 164.475 127.38 164.501 127.1L164.493 127.1ZM169.708 117.673C165.844 116.808 164.597 121.751 164.224 124.133C162.821 115.486 156.981 118.207 159 124.108C159.643 125.855 160.656 127.449 161.972 128.788C162.154 128.991 162.353 129.194 162.561 129.398C162.327 130.585 163.505 130.28 165.099 129.186C166.276 128.367 167.365 127.432 168.348 126.397C171.527 123.133 174.005 118.767 169.708 117.673ZM169.829 122.539C168.637 124.044 167.3 125.432 165.835 126.685C165.376 127.092 164.908 127.482 164.432 127.855C164.423 127.931 164.423 127.999 164.415 128.058C164.381 128.141 164.341 128.22 164.293 128.296C163.808 129.152 163.262 128.686 163.054 127.974C163.037 127.948 163.011 127.923 162.994 127.897C162.302 127.198 161.699 126.417 161.201 125.575C157.622 119.504 163.384 115.376 163.098 126.711C163.045 126.815 163.01 126.926 162.994 127.041C162.945 127.317 162.956 127.6 163.029 127.872L163.054 127.974C163.228 128.152 163.41 128.321 163.6 128.499C163.774 128.372 163.938 128.236 164.111 128.109C164.215 128.024 164.319 127.94 164.432 127.855C164.449 127.634 164.475 127.38 164.501 127.1L164.501 127.092C164.727 124.82 165.342 120.734 166.477 119.623C168.972 117.749 172.203 119.776 169.829 122.539ZM164.493 127.1C164.328 127.168 164.163 127.236 164.016 127.312H164.007C163.869 127.38 163.73 127.448 163.592 127.524C163.574 127.533 163.566 127.541 163.548 127.55C163.366 127.38 163.184 127.211 162.994 127.041C162.945 127.317 162.956 127.6 163.029 127.872L163.054 127.974C163.228 128.152 163.41 128.321 163.6 128.499C163.774 128.372 163.938 128.236 164.111 128.109C164.215 128.024 164.319 127.94 164.432 127.855C164.449 127.634 164.475 127.38 164.501 127.1L164.493 127.1Z" fill="#2F2E41"/>
<path d="M351.134 152.241L284.751 115.854C283.203 115.006 281.259 115.573 280.41 117.121L253.359 166.466C252.51 168.015 253.078 169.958 254.626 170.807L321.01 207.194C322.558 208.043 324.502 207.476 325.351 205.927L352.401 156.582C353.25 155.034 352.683 153.09 351.134 152.241Z" fill="#D7D7D8"/>
<path d="M284.398 116.499C283.207 115.846 281.707 116.284 281.054 117.475L254.004 166.818C253.352 168.009 253.789 169.509 254.98 170.162L321.363 206.549C322.554 207.201 324.054 206.764 324.707 205.573L351.757 156.229C352.41 155.039 351.972 153.539 350.781 152.886L284.398 116.499Z" fill="white"/>
<path d="M318.018 134.517L317.504 134.235L287.706 188.591L288.22 188.873L318.018 134.517Z" fill="#D7D7D8"/>
<path d="M309.854 141.55C310.256 141.771 310.76 141.624 310.981 141.222C311.201 140.819 311.054 140.315 310.652 140.094C310.25 139.874 309.745 140.021 309.525 140.423C309.304 140.825 309.452 141.33 309.854 141.55Z" fill="#D7D7D8"/>
<path d="M315.967 144.901C316.369 145.121 316.874 144.974 317.094 144.572C317.315 144.17 317.167 143.665 316.765 143.445C316.363 143.225 315.858 143.372 315.638 143.774C315.418 144.176 315.565 144.681 315.967 144.901Z" fill="#D7D7D8"/>
<path d="M304.639 151.064C305.041 151.284 305.546 151.137 305.766 150.735C305.986 150.333 305.839 149.828 305.437 149.608C305.035 149.387 304.53 149.534 304.31 149.937C304.089 150.339 304.237 150.843 304.639 151.064Z" fill="#D7D7D8"/>
<path d="M310.752 154.414C311.154 154.635 311.659 154.487 311.879 154.085C312.1 153.683 311.952 153.179 311.55 152.958C311.148 152.738 310.644 152.885 310.423 153.287C310.203 153.689 310.35 154.194 310.752 154.414Z" fill="#D7D7D8"/>
<path d="M299.424 160.576C299.826 160.796 300.331 160.649 300.551 160.247C300.772 159.845 300.624 159.34 300.222 159.12C299.82 158.899 299.315 159.046 299.095 159.448C298.875 159.851 299.022 160.355 299.424 160.576Z" fill="#D7D7D8"/>
<path d="M305.537 163.926C305.939 164.147 306.444 164 306.664 163.597C306.885 163.195 306.738 162.691 306.335 162.47C305.933 162.25 305.429 162.397 305.208 162.799C304.988 163.201 305.135 163.706 305.537 163.926Z" fill="#D7D7D8"/>
<path d="M294.209 170.089C294.611 170.309 295.116 170.162 295.336 169.76C295.557 169.358 295.409 168.853 295.007 168.633C294.605 168.413 294.101 168.56 293.88 168.962C293.66 169.364 293.807 169.869 294.209 170.089Z" fill="#D7D7D8"/>
<path d="M300.322 173.44C300.725 173.66 301.229 173.513 301.45 173.111C301.67 172.709 301.523 172.204 301.121 171.984C300.719 171.763 300.214 171.91 299.993 172.312C299.773 172.715 299.92 173.219 300.322 173.44Z" fill="#D7D7D8"/>
<path d="M288.994 179.601C289.396 179.821 289.901 179.674 290.121 179.272C290.342 178.87 290.195 178.365 289.793 178.145C289.39 177.925 288.886 178.072 288.665 178.474C288.445 178.876 288.592 179.381 288.994 179.601Z" fill="#D7D7D8"/>
<path d="M295.108 182.952C295.51 183.172 296.014 183.025 296.235 182.623C296.455 182.221 296.308 181.716 295.906 181.496C295.504 181.275 294.999 181.423 294.779 181.825C294.558 182.227 294.705 182.731 295.108 182.952Z" fill="#D7D7D8"/>
<path d="M310.505 140.523L310.489 140.23C310.534 140.227 314.967 140.041 316.742 143.662L316.478 143.792C314.788 140.345 310.546 140.52 310.505 140.523Z" fill="#D7D7D8"/>
<path d="M310.014 141.416L309.999 141.123C310.044 141.12 314.476 140.934 316.252 144.555L315.988 144.685C314.298 141.238 310.056 141.413 310.014 141.416Z" fill="#D7D7D8"/>
<path d="M305.266 150.077L305.251 149.784C305.296 149.782 309.728 149.596 311.504 153.217L311.24 153.347C309.55 149.9 305.308 150.075 305.266 150.077Z" fill="#D7D7D8"/>
<path d="M304.776 150.972L304.761 150.679C304.806 150.676 309.238 150.49 311.014 154.111L310.75 154.241C309.06 150.794 304.818 150.969 304.776 150.972Z" fill="#D7D7D8"/>
<path d="M300.03 159.632L300.015 159.339C300.06 159.336 304.492 159.15 306.268 162.771L306.004 162.901C304.313 159.455 300.071 159.63 300.03 159.632Z" fill="#D7D7D8"/>
<path d="M299.54 160.526L299.524 160.233C299.569 160.231 304 160.044 305.777 163.665L305.513 163.796C303.823 160.349 299.581 160.524 299.54 160.526Z" fill="#D7D7D8"/>
<path d="M294.792 169.186L294.776 168.893C294.821 168.891 299.254 168.704 301.029 172.325L300.765 172.455C299.074 169.01 294.833 169.184 294.792 169.186Z" fill="#D7D7D8"/>
<path d="M294.301 170.08L294.286 169.787C294.331 169.785 298.762 169.598 300.539 173.22L300.275 173.35C298.585 169.903 294.343 170.078 294.301 170.08Z" fill="#D7D7D8"/>
<path d="M289.553 178.741L289.538 178.448C289.583 178.445 294.015 178.259 295.791 181.88L295.528 182.009C293.838 178.562 289.596 178.737 289.554 178.74L289.553 178.741Z" fill="#D7D7D8"/>
<path d="M289.063 179.635L289.048 179.342C289.093 179.339 293.525 179.153 295.301 182.774L295.037 182.903C293.347 179.456 289.105 179.631 289.064 179.634L289.063 179.635Z" fill="#D7D7D8"/>
<path d="M283.271 127.761C285.975 129.111 288.65 130.52 291.292 131.989C293.934 133.457 296.501 134.959 299.053 136.531C300.507 137.425 301.948 138.337 303.378 139.268C303.616 139.424 303.827 139.035 303.59 138.882C301.056 137.233 298.486 135.642 295.882 134.107C293.278 132.573 290.681 131.122 288.033 129.716C286.526 128.917 285.009 128.135 283.482 127.374C283.23 127.248 283.016 127.633 283.27 127.761L283.271 127.761Z" fill="#8361F4"/>
<path d="M280.873 132.135C283.577 133.485 286.252 134.894 288.894 136.362C291.536 137.831 294.103 139.333 296.655 140.904C298.109 141.799 299.549 142.711 300.979 143.642C301.217 143.798 301.429 143.409 301.191 143.255C298.658 141.607 296.088 140.016 293.484 138.481C290.88 136.946 288.283 135.496 285.635 134.09C284.127 133.29 282.61 132.509 281.084 131.748C280.831 131.621 280.618 132.007 280.872 132.134L280.873 132.135Z" fill="#2F2E43"/>
<path d="M278.475 136.508C280.671 137.602 282.874 138.686 285.046 139.828C286.904 140.804 288.728 141.843 290.517 142.939C291.793 143.72 293.053 144.527 294.309 145.342C294.547 145.498 294.758 145.109 294.521 144.956C292.465 143.618 290.391 142.309 288.263 141.089C286.442 140.045 284.579 139.076 282.706 138.13C281.369 137.456 280.029 136.789 278.687 136.121C278.435 135.995 278.222 136.38 278.475 136.508Z" fill="#2F2E43"/>
<path d="M276.078 140.881C278.401 142.041 280.729 143.197 283.025 144.411C285.08 145.498 287.105 146.643 289.092 147.852C290.415 148.658 291.723 149.487 293.022 150.333C293.26 150.489 293.472 150.101 293.234 149.947C291.057 148.531 288.854 147.157 286.6 145.871C284.58 144.717 282.52 143.635 280.446 142.582C279.064 141.88 277.677 141.189 276.29 140.497C276.038 140.37 275.825 140.756 276.078 140.883L276.078 140.881Z" fill="#2F2E43"/>
<path d="M273.681 145.253C275.794 146.308 277.93 147.314 280.051 148.351C281.804 149.208 283.528 150.118 285.206 151.112C286.464 151.856 287.7 152.638 288.924 153.434C289.162 153.59 289.373 153.201 289.136 153.048C287.159 151.762 285.155 150.52 283.078 149.402C281.359 148.476 279.596 147.639 277.837 146.794C276.519 146.16 275.202 145.519 273.893 144.867C273.64 144.74 273.426 145.127 273.681 145.253Z" fill="#2F2E43"/>
<path d="M271.283 149.626C273.987 150.976 276.662 152.385 279.304 153.854C281.946 155.322 284.513 156.824 287.065 158.396C288.519 159.29 289.959 160.202 291.389 161.133C291.628 161.289 291.839 160.9 291.601 160.747C289.068 159.098 286.498 157.507 283.894 155.972C281.29 154.438 278.693 152.987 276.045 151.581C274.538 150.782 273.02 150 271.494 149.239C271.241 149.112 271.028 149.498 271.282 149.626L271.283 149.626Z" fill="#2F2E43"/>
<path d="M333.052 256V243.4H338.488C339.892 243.4 340.978 243.682 341.746 244.246C342.526 244.81 342.916 245.608 342.916 246.64C342.916 247.324 342.754 247.9 342.43 248.368C342.118 248.836 341.686 249.19 341.134 249.43C340.594 249.67 340 249.79 339.352 249.79L339.658 249.358C340.462 249.358 341.152 249.484 341.728 249.736C342.316 249.976 342.772 250.342 343.096 250.834C343.42 251.314 343.582 251.914 343.582 252.634C343.582 253.702 343.186 254.53 342.394 255.118C341.614 255.706 340.432 256 338.848 256H333.052ZM334.384 254.902H338.83C339.934 254.902 340.78 254.716 341.368 254.344C341.956 253.96 342.25 253.354 342.25 252.526C342.25 251.71 341.956 251.116 341.368 250.744C340.78 250.36 339.934 250.168 338.83 250.168H334.24V249.07H338.398C339.406 249.07 340.186 248.878 340.738 248.494C341.302 248.11 341.584 247.54 341.584 246.784C341.584 246.016 341.302 245.446 340.738 245.074C340.186 244.69 339.406 244.498 338.398 244.498H334.384V254.902ZM346.352 256V242.644H347.63V256H346.352ZM355.092 256.09C354.288 256.09 353.586 255.94 352.986 255.64C352.386 255.34 351.918 254.89 351.582 254.29C351.258 253.69 351.096 252.94 351.096 252.04V246.55H352.374V251.896C352.374 252.904 352.62 253.666 353.112 254.182C353.616 254.686 354.318 254.938 355.218 254.938C355.878 254.938 356.448 254.806 356.928 254.542C357.42 254.266 357.792 253.87 358.044 253.354C358.308 252.838 358.44 252.22 358.44 251.5V246.55H359.718V256H358.494V253.408L358.692 253.876C358.392 254.572 357.924 255.118 357.288 255.514C356.664 255.898 355.932 256.09 355.092 256.09ZM367.294 256.09C366.31 256.09 365.446 255.886 364.702 255.478C363.958 255.058 363.376 254.488 362.956 253.768C362.536 253.036 362.326 252.202 362.326 251.266C362.326 250.33 362.524 249.502 362.92 248.782C363.328 248.062 363.88 247.498 364.576 247.09C365.284 246.67 366.076 246.46 366.952 246.46C367.84 246.46 368.626 246.664 369.31 247.072C370.006 247.468 370.552 248.032 370.948 248.764C371.344 249.484 371.542 250.318 371.542 251.266C371.542 251.326 371.536 251.392 371.524 251.464C371.524 251.524 371.524 251.59 371.524 251.662H363.298V250.708H370.84L370.336 251.086C370.336 250.402 370.186 249.796 369.886 249.268C369.598 248.728 369.202 248.308 368.698 248.008C368.194 247.708 367.612 247.558 366.952 247.558C366.304 247.558 365.722 247.708 365.206 248.008C364.69 248.308 364.288 248.728 364 249.268C363.712 249.808 363.568 250.426 363.568 251.122V251.32C363.568 252.04 363.724 252.676 364.036 253.228C364.36 253.768 364.804 254.194 365.368 254.506C365.944 254.806 366.598 254.956 367.33 254.956C367.906 254.956 368.44 254.854 368.932 254.65C369.436 254.446 369.868 254.134 370.228 253.714L370.948 254.542C370.528 255.046 370 255.43 369.364 255.694C368.74 255.958 368.05 256.09 367.294 256.09ZM379.021 256.09C378.193 256.09 377.449 255.904 376.789 255.532C376.129 255.148 375.607 254.596 375.223 253.876C374.839 253.156 374.647 252.286 374.647 251.266C374.647 250.234 374.839 249.364 375.223 248.656C375.619 247.936 376.147 247.39 376.807 247.018C377.467 246.646 378.205 246.46 379.021 246.46C379.921 246.46 380.725 246.664 381.433 247.072C382.153 247.468 382.717 248.026 383.125 248.746C383.533 249.466 383.737 250.306 383.737 251.266C383.737 252.214 383.533 253.054 383.125 253.786C382.717 254.506 382.153 255.07 381.433 255.478C380.725 255.886 379.921 256.09 379.021 256.09ZM374.143 256V242.644H375.421V249.34L375.241 251.248L375.367 253.156V256H374.143ZM378.931 254.956C379.603 254.956 380.203 254.806 380.731 254.506C381.259 254.194 381.679 253.762 381.991 253.21C382.303 252.646 382.459 251.998 382.459 251.266C382.459 250.522 382.303 249.874 381.991 249.322C381.679 248.77 381.259 248.344 380.731 248.044C380.203 247.732 379.603 247.576 378.931 247.576C378.259 247.576 377.653 247.732 377.113 248.044C376.585 248.344 376.165 248.77 375.853 249.322C375.553 249.874 375.403 250.522 375.403 251.266C375.403 251.998 375.553 252.646 375.853 253.21C376.165 253.762 376.585 254.194 377.113 254.506C377.653 254.806 378.259 254.956 378.931 254.956ZM390.357 256.09C389.373 256.09 388.509 255.886 387.765 255.478C387.021 255.058 386.439 254.488 386.019 253.768C385.599 253.036 385.389 252.202 385.389 251.266C385.389 250.33 385.587 249.502 385.983 248.782C386.391 248.062 386.943 247.498 387.639 247.09C388.347 246.67 389.139 246.46 390.015 246.46C390.903 246.46 391.689 246.664 392.373 247.072C393.069 247.468 393.615 248.032 394.011 248.764C394.407 249.484 394.605 250.318 394.605 251.266C394.605 251.326 394.599 251.392 394.587 251.464C394.587 251.524 394.587 251.59 394.587 251.662H386.361V250.708H393.903L393.399 251.086C393.399 250.402 393.249 249.796 392.949 249.268C392.661 248.728 392.265 248.308 391.761 248.008C391.257 247.708 390.675 247.558 390.015 247.558C389.367 247.558 388.785 247.708 388.269 248.008C387.753 248.308 387.351 248.728 387.063 249.268C386.775 249.808 386.631 250.426 386.631 251.122V251.32C386.631 252.04 386.787 252.676 387.099 253.228C387.423 253.768 387.867 254.194 388.431 254.506C389.007 254.806 389.661 254.956 390.393 254.956C390.969 254.956 391.503 254.854 391.995 254.65C392.499 254.446 392.931 254.134 393.291 253.714L394.011 254.542C393.591 255.046 393.063 255.43 392.427 255.694C391.803 255.958 391.113 256.09 390.357 256.09ZM397.206 256V246.55H398.43V249.124L398.304 248.674C398.568 247.954 399.012 247.408 399.636 247.036C400.26 246.652 401.034 246.46 401.958 246.46V247.702C401.91 247.702 401.862 247.702 401.814 247.702C401.766 247.69 401.718 247.684 401.67 247.684C400.674 247.684 399.894 247.99 399.33 248.602C398.766 249.202 398.484 250.06 398.484 251.176V256H397.206ZM404.29 256V246.55H405.514V249.124L405.388 248.674C405.652 247.954 406.096 247.408 406.72 247.036C407.344 246.652 408.118 246.46 409.042 246.46V247.702C408.994 247.702 408.946 247.702 408.898 247.702C408.85 247.69 408.802 247.684 408.754 247.684C407.758 247.684 406.978 247.99 406.414 248.602C405.85 249.202 405.568 250.06 405.568 251.176V256H404.29ZM411.85 259.582C411.406 259.582 410.98 259.51 410.572 259.366C410.176 259.222 409.834 259.006 409.546 258.718L410.14 257.764C410.38 257.992 410.638 258.166 410.914 258.286C411.202 258.418 411.52 258.484 411.868 258.484C412.288 258.484 412.648 258.364 412.948 258.124C413.26 257.896 413.554 257.488 413.83 256.9L414.442 255.514L414.586 255.316L418.474 246.55H419.734L415 257.134C414.736 257.746 414.442 258.232 414.118 258.592C413.806 258.952 413.464 259.204 413.092 259.348C412.72 259.504 412.306 259.582 411.85 259.582ZM414.37 256.27L410.014 246.55H411.346L415.198 255.226L414.37 256.27ZM431.987 256.108C431.039 256.108 430.163 255.952 429.359 255.64C428.555 255.316 427.859 254.866 427.271 254.29C426.683 253.714 426.221 253.036 425.885 252.256C425.561 251.476 425.399 250.624 425.399 249.7C425.399 248.776 425.561 247.924 425.885 247.144C426.221 246.364 426.683 245.686 427.271 245.11C427.871 244.534 428.573 244.09 429.377 243.778C430.181 243.454 431.057 243.292 432.005 243.292C432.917 243.292 433.775 243.448 434.579 243.76C435.383 244.06 436.061 244.516 436.613 245.128L435.767 245.974C435.251 245.446 434.681 245.068 434.057 244.84C433.433 244.6 432.761 244.48 432.041 244.48C431.285 244.48 430.583 244.612 429.935 244.876C429.287 245.128 428.723 245.494 428.243 245.974C427.763 246.442 427.385 246.994 427.109 247.63C426.845 248.254 426.713 248.944 426.713 249.7C426.713 250.456 426.845 251.152 427.109 251.788C427.385 252.412 427.763 252.964 428.243 253.444C428.723 253.912 429.287 254.278 429.935 254.542C430.583 254.794 431.285 254.92 432.041 254.92C432.761 254.92 433.433 254.8 434.057 254.56C434.681 254.32 435.251 253.936 435.767 253.408L436.613 254.254C436.061 254.866 435.383 255.328 434.579 255.64C433.775 255.952 432.911 256.108 431.987 256.108ZM442.772 256.09C441.968 256.09 441.266 255.94 440.666 255.64C440.066 255.34 439.598 254.89 439.262 254.29C438.938 253.69 438.776 252.94 438.776 252.04V246.55H440.054V251.896C440.054 252.904 440.3 253.666 440.792 254.182C441.296 254.686 441.998 254.938 442.898 254.938C443.558 254.938 444.128 254.806 444.608 254.542C445.1 254.266 445.472 253.87 445.724 253.354C445.988 252.838 446.12 252.22 446.12 251.5V246.55H447.398V256H446.174V253.408L446.372 253.876C446.072 254.572 445.604 255.118 444.968 255.514C444.344 255.898 443.612 256.09 442.772 256.09ZM455.838 256.09C455.022 256.09 454.284 255.904 453.624 255.532C452.964 255.148 452.436 254.602 452.04 253.894C451.656 253.174 451.464 252.298 451.464 251.266C451.464 250.234 451.656 249.364 452.04 248.656C452.424 247.936 452.946 247.39 453.606 247.018C454.266 246.646 455.01 246.46 455.838 246.46C456.738 246.46 457.542 246.664 458.25 247.072C458.97 247.468 459.534 248.032 459.942 248.764C460.35 249.484 460.554 250.318 460.554 251.266C460.554 252.226 460.35 253.066 459.942 253.786C459.534 254.506 458.97 255.07 458.25 255.478C457.542 255.886 456.738 256.09 455.838 256.09ZM450.96 259.492V246.55H452.184V249.394L452.058 251.284L452.238 253.192V259.492H450.96ZM455.748 254.956C456.42 254.956 457.02 254.806 457.548 254.506C458.076 254.194 458.496 253.762 458.808 253.21C459.12 252.646 459.276 251.998 459.276 251.266C459.276 250.534 459.12 249.892 458.808 249.34C458.496 248.788 458.076 248.356 457.548 248.044C457.02 247.732 456.42 247.576 455.748 247.576C455.076 247.576 454.47 247.732 453.93 248.044C453.402 248.356 452.982 248.788 452.67 249.34C452.37 249.892 452.22 250.534 452.22 251.266C452.22 251.998 452.37 252.646 452.67 253.21C452.982 253.762 453.402 254.194 453.93 254.506C454.47 254.806 455.076 254.956 455.748 254.956ZM467.083 256.09C466.147 256.09 465.307 255.886 464.563 255.478C463.831 255.058 463.255 254.488 462.835 253.768C462.415 253.036 462.205 252.202 462.205 251.266C462.205 250.318 462.415 249.484 462.835 248.764C463.255 248.044 463.831 247.48 464.563 247.072C465.307 246.664 466.147 246.46 467.083 246.46C467.887 246.46 468.613 246.616 469.261 246.928C469.909 247.24 470.419 247.708 470.791 248.332L469.837 248.98C469.513 248.5 469.111 248.146 468.631 247.918C468.151 247.69 467.629 247.576 467.065 247.576C466.393 247.576 465.787 247.732 465.247 248.044C464.707 248.344 464.281 248.77 463.969 249.322C463.657 249.874 463.501 250.522 463.501 251.266C463.501 252.01 463.657 252.658 463.969 253.21C464.281 253.762 464.707 254.194 465.247 254.506C465.787 254.806 466.393 254.956 467.065 254.956C467.629 254.956 468.151 254.842 468.631 254.614C469.111 254.386 469.513 254.038 469.837 253.57L470.791 254.218C470.419 254.83 469.909 255.298 469.261 255.622C468.613 255.934 467.887 256.09 467.083 256.09ZM479.224 256V253.912L479.17 253.57V250.078C479.17 249.274 478.942 248.656 478.486 248.224C478.042 247.792 477.376 247.576 476.488 247.576C475.876 247.576 475.294 247.678 474.742 247.882C474.19 248.086 473.722 248.356 473.338 248.692L472.762 247.738C473.242 247.33 473.818 247.018 474.49 246.802C475.162 246.574 475.87 246.46 476.614 246.46C477.838 246.46 478.78 246.766 479.44 247.378C480.112 247.978 480.448 248.896 480.448 250.132V256H479.224ZM475.966 256.09C475.258 256.09 474.64 255.976 474.112 255.748C473.596 255.508 473.2 255.184 472.924 254.776C472.648 254.356 472.51 253.876 472.51 253.336C472.51 252.844 472.624 252.4 472.852 252.004C473.092 251.596 473.476 251.272 474.004 251.032C474.544 250.78 475.264 250.654 476.164 250.654H479.422V251.608H476.2C475.288 251.608 474.652 251.77 474.292 252.094C473.944 252.418 473.77 252.82 473.77 253.3C473.77 253.84 473.98 254.272 474.4 254.596C474.82 254.92 475.408 255.082 476.164 255.082C476.884 255.082 477.502 254.92 478.018 254.596C478.546 254.26 478.93 253.78 479.17 253.156L479.458 254.038C479.218 254.662 478.798 255.16 478.198 255.532C477.61 255.904 476.866 256.09 475.966 256.09ZM484.927 253.552L484.963 251.914L490.849 246.55H492.415L488.257 250.528L487.537 251.14L484.927 253.552ZM483.919 256V242.644H485.197V256H483.919ZM491.245 256L487.303 251.086L488.131 250.096L492.811 256H491.245ZM498.374 256.09C497.39 256.09 496.526 255.886 495.782 255.478C495.038 255.058 494.456 254.488 494.036 253.768C493.616 253.036 493.406 252.202 493.406 251.266C493.406 250.33 493.604 249.502 494 248.782C494.408 248.062 494.96 247.498 495.656 247.09C496.364 246.67 497.156 246.46 498.032 246.46C498.92 246.46 499.706 246.664 500.39 247.072C501.086 247.468 501.632 248.032 502.028 248.764C502.424 249.484 502.622 250.318 502.622 251.266C502.622 251.326 502.616 251.392 502.604 251.464C502.604 251.524 502.604 251.59 502.604 251.662H494.378V250.708H501.92L501.416 251.086C501.416 250.402 501.266 249.796 500.966 249.268C500.678 248.728 500.282 248.308 499.778 248.008C499.274 247.708 498.692 247.558 498.032 247.558C497.384 247.558 496.802 247.708 496.286 248.008C495.77 248.308 495.368 248.728 495.08 249.268C494.792 249.808 494.648 250.426 494.648 251.122V251.32C494.648 252.04 494.804 252.676 495.116 253.228C495.44 253.768 495.884 254.194 496.448 254.506C497.024 254.806 497.678 254.956 498.41 254.956C498.986 254.956 499.52 254.854 500.012 254.65C500.516 254.446 500.948 254.134 501.308 253.714L502.028 254.542C501.608 255.046 501.08 255.43 500.444 255.694C499.82 255.958 499.13 256.09 498.374 256.09ZM507.761 256.09C506.981 256.09 506.243 255.982 505.547 255.766C504.851 255.538 504.305 255.256 503.909 254.92L504.485 253.912C504.869 254.2 505.361 254.452 505.961 254.668C506.561 254.872 507.191 254.974 507.851 254.974C508.751 254.974 509.399 254.836 509.795 254.56C510.191 254.272 510.389 253.894 510.389 253.426C510.389 253.078 510.275 252.808 510.047 252.616C509.831 252.412 509.543 252.262 509.183 252.166C508.823 252.058 508.421 251.968 507.977 251.896C507.533 251.824 507.089 251.74 506.645 251.644C506.213 251.548 505.817 251.41 505.457 251.23C505.097 251.038 504.803 250.78 504.575 250.456C504.359 250.132 504.251 249.7 504.251 249.16C504.251 248.644 504.395 248.182 504.683 247.774C504.971 247.366 505.391 247.048 505.943 246.82C506.507 246.58 507.191 246.46 507.995 246.46C508.607 246.46 509.219 246.544 509.831 246.712C510.443 246.868 510.947 247.078 511.343 247.342L510.785 248.368C510.365 248.08 509.915 247.876 509.435 247.756C508.955 247.624 508.475 247.558 507.995 247.558C507.143 247.558 506.513 247.708 506.105 248.008C505.709 248.296 505.511 248.668 505.511 249.124C505.511 249.484 505.619 249.766 505.835 249.97C506.063 250.174 506.357 250.336 506.717 250.456C507.089 250.564 507.491 250.654 507.923 250.726C508.367 250.798 508.805 250.888 509.237 250.996C509.681 251.092 510.083 251.23 510.443 251.41C510.815 251.578 511.109 251.824 511.325 252.148C511.553 252.46 511.667 252.874 511.667 253.39C511.667 253.942 511.511 254.422 511.199 254.83C510.899 255.226 510.455 255.538 509.867 255.766C509.291 255.982 508.589 256.09 507.761 256.09Z" fill="#4A2662"/>
<path d="M336.24 458.034H342.9V459.168H336.24V458.034ZM336.384 463.848H343.962V465H335.052V452.4H343.692V453.552H336.384V463.848ZM351.647 455.46C352.415 455.46 353.087 455.61 353.663 455.91C354.251 456.198 354.707 456.642 355.031 457.242C355.367 457.842 355.535 458.598 355.535 459.51V465H354.257V459.636C354.257 458.64 354.005 457.89 353.501 457.386C353.009 456.87 352.313 456.612 351.413 456.612C350.741 456.612 350.153 456.75 349.649 457.026C349.157 457.29 348.773 457.68 348.497 458.196C348.233 458.7 348.101 459.312 348.101 460.032V465H346.823V455.55H348.047V458.142L347.849 457.656C348.149 456.972 348.629 456.438 349.289 456.054C349.949 455.658 350.735 455.46 351.647 455.46ZM363.019 468.582C362.155 468.582 361.327 468.456 360.535 468.204C359.743 467.952 359.101 467.592 358.609 467.124L359.257 466.152C359.701 466.548 360.247 466.86 360.895 467.088C361.555 467.328 362.251 467.448 362.983 467.448C364.183 467.448 365.065 467.166 365.629 466.602C366.193 466.05 366.475 465.186 366.475 464.01V461.652L366.655 460.032L366.529 458.412V455.55H367.753V463.848C367.753 465.48 367.351 466.674 366.547 467.43C365.755 468.198 364.579 468.582 363.019 468.582ZM362.785 464.64C361.885 464.64 361.075 464.448 360.355 464.064C359.635 463.668 359.065 463.122 358.645 462.426C358.237 461.73 358.033 460.932 358.033 460.032C358.033 459.132 358.237 458.34 358.645 457.656C359.065 456.96 359.635 456.42 360.355 456.036C361.075 455.652 361.885 455.46 362.785 455.46C363.625 455.46 364.381 455.634 365.053 455.982C365.725 456.33 366.259 456.846 366.655 457.53C367.051 458.214 367.249 459.048 367.249 460.032C367.249 461.016 367.051 461.85 366.655 462.534C366.259 463.218 365.725 463.74 365.053 464.1C364.381 464.46 363.625 464.64 362.785 464.64ZM362.911 463.506C363.607 463.506 364.225 463.362 364.765 463.074C365.305 462.774 365.731 462.366 366.043 461.85C366.355 461.322 366.511 460.716 366.511 460.032C366.511 459.348 366.355 458.748 366.043 458.232C365.731 457.716 365.305 457.314 364.765 457.026C364.225 456.726 363.607 456.576 362.911 456.576C362.227 456.576 361.609 456.726 361.057 457.026C360.517 457.314 360.091 457.716 359.779 458.232C359.479 458.748 359.329 459.348 359.329 460.032C359.329 460.716 359.479 461.322 359.779 461.85C360.091 462.366 360.517 462.774 361.057 463.074C361.609 463.362 362.227 463.506 362.911 463.506ZM371.309 465V451.644H372.587V465H371.309ZM376.143 465V455.55H377.421V465H376.143ZM376.791 453.462C376.527 453.462 376.305 453.372 376.125 453.192C375.945 453.012 375.855 452.796 375.855 452.544C375.855 452.292 375.945 452.082 376.125 451.914C376.305 451.734 376.527 451.644 376.791 451.644C377.055 451.644 377.277 451.728 377.457 451.896C377.637 452.064 377.727 452.274 377.727 452.526C377.727 452.79 377.637 453.012 377.457 453.192C377.289 453.372 377.067 453.462 376.791 453.462ZM383.515 465.09C382.735 465.09 381.997 464.982 381.301 464.766C380.605 464.538 380.059 464.256 379.663 463.92L380.239 462.912C380.623 463.2 381.115 463.452 381.715 463.668C382.315 463.872 382.945 463.974 383.605 463.974C384.505 463.974 385.153 463.836 385.549 463.56C385.945 463.272 386.143 462.894 386.143 462.426C386.143 462.078 386.029 461.808 385.801 461.616C385.585 461.412 385.297 461.262 384.937 461.166C384.577 461.058 384.175 460.968 383.731 460.896C383.287 460.824 382.843 460.74 382.399 460.644C381.967 460.548 381.571 460.41 381.211 460.23C380.851 460.038 380.557 459.78 380.329 459.456C380.113 459.132 380.005 458.7 380.005 458.16C380.005 457.644 380.149 457.182 380.437 456.774C380.725 456.366 381.145 456.048 381.697 455.82C382.261 455.58 382.945 455.46 383.749 455.46C384.361 455.46 384.973 455.544 385.585 455.712C386.197 455.868 386.701 456.078 387.097 456.342L386.539 457.368C386.119 457.08 385.669 456.876 385.189 456.756C384.709 456.624 384.229 456.558 383.749 456.558C382.897 456.558 382.267 456.708 381.859 457.008C381.463 457.296 381.265 457.668 381.265 458.124C381.265 458.484 381.373 458.766 381.589 458.97C381.817 459.174 382.111 459.336 382.471 459.456C382.843 459.564 383.245 459.654 383.677 459.726C384.121 459.798 384.559 459.888 384.991 459.996C385.435 460.092 385.837 460.23 386.197 460.41C386.569 460.578 386.863 460.824 387.079 461.148C387.307 461.46 387.421 461.874 387.421 462.39C387.421 462.942 387.265 463.422 386.953 463.83C386.653 464.226 386.209 464.538 385.621 464.766C385.045 464.982 384.343 465.09 383.515 465.09ZM394.59 455.46C395.358 455.46 396.03 455.61 396.606 455.91C397.194 456.198 397.65 456.642 397.974 457.242C398.31 457.842 398.478 458.598 398.478 459.51V465H397.2V459.636C397.2 458.64 396.948 457.89 396.444 457.386C395.952 456.87 395.256 456.612 394.356 456.612C393.684 456.612 393.096 456.75 392.592 457.026C392.1 457.29 391.716 457.68 391.44 458.196C391.176 458.7 391.044 459.312 391.044 460.032V465H389.766V451.644H391.044V458.142L390.792 457.656C391.092 456.972 391.572 456.438 392.232 456.054C392.892 455.658 393.678 455.46 394.59 455.46ZM406.911 465V452.4H412.347C413.751 452.4 414.837 452.682 415.605 453.246C416.385 453.81 416.775 454.608 416.775 455.64C416.775 456.324 416.613 456.9 416.289 457.368C415.977 457.836 415.545 458.19 414.993 458.43C414.453 458.67 413.859 458.79 413.211 458.79L413.517 458.358C414.321 458.358 415.011 458.484 415.587 458.736C416.175 458.976 416.631 459.342 416.955 459.834C417.279 460.314 417.441 460.914 417.441 461.634C417.441 462.702 417.045 463.53 416.253 464.118C415.473 464.706 414.291 465 412.707 465H406.911ZM408.243 463.902H412.689C413.793 463.902 414.639 463.716 415.227 463.344C415.815 462.96 416.109 462.354 416.109 461.526C416.109 460.71 415.815 460.116 415.227 459.744C414.639 459.36 413.793 459.168 412.689 459.168H408.099V458.07H412.257C413.265 458.07 414.045 457.878 414.597 457.494C415.161 457.11 415.443 456.54 415.443 455.784C415.443 455.016 415.161 454.446 414.597 454.074C414.045 453.69 413.265 453.498 412.257 453.498H408.243V463.902ZM420.212 465V455.55H421.436V458.124L421.31 457.674C421.574 456.954 422.018 456.408 422.642 456.036C423.266 455.652 424.04 455.46 424.964 455.46V456.702C424.916 456.702 424.868 456.702 424.82 456.702C424.772 456.69 424.724 456.684 424.676 456.684C423.68 456.684 422.9 456.99 422.336 457.602C421.772 458.202 421.49 459.06 421.49 460.176V465H420.212ZM431.222 465.09C430.238 465.09 429.374 464.886 428.63 464.478C427.886 464.058 427.304 463.488 426.884 462.768C426.464 462.036 426.254 461.202 426.254 460.266C426.254 459.33 426.452 458.502 426.848 457.782C427.256 457.062 427.808 456.498 428.504 456.09C429.212 455.67 430.004 455.46 430.88 455.46C431.768 455.46 432.554 455.664 433.238 456.072C433.934 456.468 434.48 457.032 434.876 457.764C435.272 458.484 435.47 459.318 435.47 460.266C435.47 460.326 435.464 460.392 435.452 460.464C435.452 460.524 435.452 460.59 435.452 460.662H427.226V459.708H434.768L434.264 460.086C434.264 459.402 434.114 458.796 433.814 458.268C433.526 457.728 433.13 457.308 432.626 457.008C432.122 456.708 431.54 456.558 430.88 456.558C430.232 456.558 429.65 456.708 429.134 457.008C428.618 457.308 428.216 457.728 427.928 458.268C427.64 458.808 427.496 459.426 427.496 460.122V460.32C427.496 461.04 427.652 461.676 427.964 462.228C428.288 462.768 428.732 463.194 429.296 463.506C429.872 463.806 430.526 463.956 431.258 463.956C431.834 463.956 432.368 463.854 432.86 463.65C433.364 463.446 433.796 463.134 434.156 462.714L434.876 463.542C434.456 464.046 433.928 464.43 433.292 464.694C432.668 464.958 431.978 465.09 431.222 465.09ZM443.729 465V462.912L443.675 462.57V459.078C443.675 458.274 443.447 457.656 442.991 457.224C442.547 456.792 441.881 456.576 440.993 456.576C440.381 456.576 439.799 456.678 439.247 456.882C438.695 457.086 438.227 457.356 437.843 457.692L437.267 456.738C437.747 456.33 438.323 456.018 438.995 455.802C439.667 455.574 440.375 455.46 441.119 455.46C442.343 455.46 443.285 455.766 443.945 456.378C444.617 456.978 444.953 457.896 444.953 459.132V465H443.729ZM440.471 465.09C439.763 465.09 439.145 464.976 438.617 464.748C438.101 464.508 437.705 464.184 437.429 463.776C437.153 463.356 437.015 462.876 437.015 462.336C437.015 461.844 437.129 461.4 437.357 461.004C437.597 460.596 437.981 460.272 438.509 460.032C439.049 459.78 439.769 459.654 440.669 459.654H443.927V460.608H440.705C439.793 460.608 439.157 460.77 438.797 461.094C438.449 461.418 438.275 461.82 438.275 462.3C438.275 462.84 438.485 463.272 438.905 463.596C439.325 463.92 439.913 464.082 440.669 464.082C441.389 464.082 442.007 463.92 442.523 463.596C443.051 463.26 443.435 462.78 443.675 462.156L443.963 463.038C443.723 463.662 443.303 464.16 442.703 464.532C442.115 464.904 441.371 465.09 440.471 465.09ZM449.433 462.552L449.469 460.914L455.355 455.55H456.921L452.763 459.528L452.043 460.14L449.433 462.552ZM448.425 465V451.644H449.703V465H448.425ZM455.751 465L451.809 460.086L452.637 459.096L457.317 465H455.751ZM459.451 465V454.362C459.451 453.522 459.697 452.844 460.189 452.328C460.681 451.812 461.389 451.554 462.313 451.554C462.673 451.554 463.021 451.602 463.357 451.698C463.693 451.794 463.975 451.944 464.203 452.148L463.771 453.102C463.591 452.946 463.381 452.832 463.141 452.76C462.901 452.676 462.643 452.634 462.367 452.634C461.827 452.634 461.413 452.784 461.125 453.084C460.837 453.384 460.693 453.828 460.693 454.416V455.856L460.729 456.45V465H459.451ZM457.759 456.612V455.55H463.609V456.612H457.759ZM471.081 465V462.912L471.027 462.57V459.078C471.027 458.274 470.799 457.656 470.343 457.224C469.899 456.792 469.233 456.576 468.345 456.576C467.733 456.576 467.151 456.678 466.599 456.882C466.047 457.086 465.579 457.356 465.195 457.692L464.619 456.738C465.099 456.33 465.675 456.018 466.347 455.802C467.019 455.574 467.727 455.46 468.471 455.46C469.695 455.46 470.637 455.766 471.297 456.378C471.969 456.978 472.305 457.896 472.305 459.132V465H471.081ZM467.823 465.09C467.115 465.09 466.497 464.976 465.969 464.748C465.453 464.508 465.057 464.184 464.781 463.776C464.505 463.356 464.367 462.876 464.367 462.336C464.367 461.844 464.481 461.4 464.709 461.004C464.949 460.596 465.333 460.272 465.861 460.032C466.401 459.78 467.121 459.654 468.021 459.654H471.279V460.608H468.057C467.145 460.608 466.509 460.77 466.149 461.094C465.801 461.418 465.627 461.82 465.627 462.3C465.627 462.84 465.837 463.272 466.257 463.596C466.677 463.92 467.265 464.082 468.021 464.082C468.741 464.082 469.359 463.92 469.875 463.596C470.403 463.26 470.787 462.78 471.027 462.156L471.315 463.038C471.075 463.662 470.655 464.16 470.055 464.532C469.467 464.904 468.723 465.09 467.823 465.09ZM478.314 465.09C477.534 465.09 476.796 464.982 476.1 464.766C475.404 464.538 474.858 464.256 474.462 463.92L475.038 462.912C475.422 463.2 475.914 463.452 476.514 463.668C477.114 463.872 477.744 463.974 478.404 463.974C479.304 463.974 479.952 463.836 480.348 463.56C480.744 463.272 480.942 462.894 480.942 462.426C480.942 462.078 480.828 461.808 480.6 461.616C480.384 461.412 480.096 461.262 479.736 461.166C479.376 461.058 478.974 460.968 478.53 460.896C478.086 460.824 477.642 460.74 477.198 460.644C476.766 460.548 476.37 460.41 476.01 460.23C475.65 460.038 475.356 459.78 475.128 459.456C474.912 459.132 474.804 458.7 474.804 458.16C474.804 457.644 474.948 457.182 475.236 456.774C475.524 456.366 475.944 456.048 476.496 455.82C477.06 455.58 477.744 455.46 478.548 455.46C479.16 455.46 479.772 455.544 480.384 455.712C480.996 455.868 481.5 456.078 481.896 456.342L481.338 457.368C480.918 457.08 480.468 456.876 479.988 456.756C479.508 456.624 479.028 456.558 478.548 456.558C477.696 456.558 477.066 456.708 476.658 457.008C476.262 457.296 476.064 457.668 476.064 458.124C476.064 458.484 476.172 458.766 476.388 458.97C476.616 459.174 476.91 459.336 477.27 459.456C477.642 459.564 478.044 459.654 478.476 459.726C478.92 459.798 479.358 459.888 479.79 459.996C480.234 460.092 480.636 460.23 480.996 460.41C481.368 460.578 481.662 460.824 481.878 461.148C482.106 461.46 482.22 461.874 482.22 462.39C482.22 462.942 482.064 463.422 481.752 463.83C481.452 464.226 481.008 464.538 480.42 464.766C479.844 464.982 479.142 465.09 478.314 465.09ZM487.553 465.09C486.665 465.09 485.981 464.85 485.501 464.37C485.021 463.89 484.781 463.212 484.781 462.336V453.462H486.059V462.264C486.059 462.816 486.197 463.242 486.473 463.542C486.761 463.842 487.169 463.992 487.697 463.992C488.261 463.992 488.729 463.83 489.101 463.506L489.551 464.424C489.299 464.652 488.993 464.82 488.633 464.928C488.285 465.036 487.925 465.09 487.553 465.09ZM483.089 456.612V455.55H488.939V456.612H483.089Z" fill="#4A2662"/>
</g>
<defs>
<clipPath id="clip0_2_435">
<rect width="562" height="526" fill="white"/>
</clipPath>
<clipPath id="clip1_2_435">
<rect width="114.536" height="115.288" fill="white" transform="translate(367.119 305.453)"/>
</clipPath>
</defs>
</svg>
